<svg id="Group_196" data-name="Group 196" xmlns="http://www.w3.org/2000/svg" xmlns:xlink="http://www.w3.org/1999/xlink" width="39.06" height="37.217" viewBox="0 0 39.06 37.217">
  <defs>
    <clipPath id="clip-path">
      <rect id="Rectangle_71" data-name="Rectangle 71" width="39.06" height="37.217" fill="none"/>
    </clipPath>
  </defs>
  <g id="Group_73" data-name="Group 73" clip-path="url(#clip-path)">
    <path id="Path_2362" data-name="Path 2362" d="M39.06,15.849C39.06,7.11,30.3,0,19.53,0S0,7.11,0,15.849c0,7.835,6.948,14.4,16.333,15.636.636.137,1.5.419,1.721.963a4.011,4.011,0,0,1,.063,1.766s-.229,1.378-.279,1.672c-.085.494-.392,1.931,1.692,1.053S30.777,30.316,34.875,25.6h0c2.83-3.1,4.186-6.254,4.186-9.751" transform="translate(0 0)" fill="#fff"/>
    <path id="Path_2363" data-name="Path 2363" d="M151.733,72.779h-5.487a.373.373,0,0,1-.373-.373V72.4h0V63.891h0v-.008a.373.373,0,0,1,.373-.373h5.487a.374.374,0,0,1,.373.373v1.385a.373.373,0,0,1-.373.373H148v1.438h3.729a.374.374,0,0,1,.373.373v1.385a.373.373,0,0,1-.373.373H148v1.438h3.729a.374.374,0,0,1,.373.373v1.385a.373.373,0,0,1-.373.373" transform="translate(-119.17 -51.884)" fill="#06c755"/>
    <path id="Path_2364" data-name="Path 2364" d="M40.859,72.779a.373.373,0,0,0,.373-.373V71.021a.374.374,0,0,0-.373-.373H37.13V63.883a.374.374,0,0,0-.373-.373H35.372a.373.373,0,0,0-.373.373V72.4h0v.006a.373.373,0,0,0,.373.373h5.487Z" transform="translate(-28.592 -51.884)" fill="#06c755"/>
    <path id="Path_2365" data-name="Path 2365" d="M77.209,63.51H75.824a.373.373,0,0,0-.373.373v8.523a.373.373,0,0,0,.373.373h1.385a.373.373,0,0,0,.373-.373V63.883a.373.373,0,0,0-.373-.373" transform="translate(-61.639 -51.884)" fill="#06c755"/>
    <path id="Path_2366" data-name="Path 2366" d="M102.091,63.51h-1.385a.373.373,0,0,0-.373.373v5.062l-3.9-5.266a.4.4,0,0,0-.03-.039l0,0-.023-.023-.007-.006-.02-.017-.01-.007-.02-.014-.011-.007-.021-.011-.012-.006-.022-.01-.012,0-.023-.007-.013,0-.022,0-.016,0-.02,0H94.74a.373.373,0,0,0-.373.373v8.523a.373.373,0,0,0,.373.373h1.385a.373.373,0,0,0,.373-.373V67.345l3.9,5.273a.377.377,0,0,0,.1.094l0,0,.023.014.011.006.018.009.018.008.012,0,.026.008h.005a.381.381,0,0,0,.1.013h1.378a.373.373,0,0,0,.373-.373V63.883a.373.373,0,0,0-.373-.373" transform="translate(-77.093 -51.884)" fill="#06c755"/>
  </g>
</svg>
