<svg xmlns="http://www.w3.org/2000/svg" width="26.111" height="26.11" viewBox="0 0 26.111 26.11">
  <path id="Path_2367" data-name="Path 2367" d="M2061.894,1589.47l1.254-1.254a2.155,2.155,0,0,0,.306-2.887l-3.826-3.825s-1.244-1.382-2.408-.219l-2.234,2.235s-.523.891-2.5-.723a35.318,35.318,0,0,1-3.524-3.2h0l-.054-.054-.054-.054h0a35.174,35.174,0,0,1-3.2-3.524c-1.615-1.979-.724-2.5-.724-2.5l2.235-2.235c1.163-1.163-.219-2.408-.219-2.408l-3.825-3.825a2.155,2.155,0,0,0-2.886.305l-1.254,1.255a4.171,4.171,0,0,0-1.208,2.38c-.018,2.536.216,8.106,6.9,14.811h0l.016.015.015.016h0c6.705,6.688,12.276,6.922,14.812,6.9A4.17,4.17,0,0,0,2061.894,1589.47Z" transform="translate(-2037.766 -1564.567)" fill="#171717"/>
</svg>
