<svg xmlns="http://www.w3.org/2000/svg" xmlns:xlink="http://www.w3.org/1999/xlink" width="218" height="375.569" viewBox="0 0 218 375.569">
  <defs>
    <clipPath id="clip-path">
      <rect id="Rectangle_201" data-name="Rectangle 201" width="218" height="375.569" fill="#171717"/>
    </clipPath>
  </defs>
  <g id="Group_239" data-name="Group 239" clip-path="url(#clip-path)">
    <g id="Group_238" data-name="Group 238" transform="translate(27.959)">
      <path id="Path_3633" data-name="Path 3633" d="M339.634,155.384l.306.368-.33.592c-.019.333-.048.839-.077,1.327l.281.385-.349.5c-.088,1.515-.18,3.115-.275,4.753l.237.3-.289.279q-.114,1.976-.229,3.959l.192.213a.933.933,0,0,1,.063.254c-.016.422-.045.844-.068,1.25l-.265.237c-.022.378-.046.79-.069,1.2l.192.216c.045.324.11.654-.256.855l.283.481-.364.423-.031.535.306.374-.289.513.163.24c.039.3.1.634-.278.842-.015.27-.032.55-.05.866l.247.311-.147,2.536-.289.282q-.025.429-.049.847l.192.216a1,1,0,0,1,.059.256c-.01.328-.035.655-.052.962l-.268.239c-.1,1.755-.2,3.541-.306,5.29l-.385.526.279.5c-.007.111-.017.3-.03.51l-.274.271.245.311-.212.192a.961.961,0,0,0-.086.248c-.073,1.176-.14,2.354-.2,3.487l.244.338-.289.256c-.152,2.627-.307,5.3-.461,7.962l-.577.173.268.343-.146,2.536-.289.282-.049.846.192.217a.994.994,0,0,1,.056.257c-.04.8-.09,1.6-.134,2.37l-.269.24c-.02.341-.041.711-.066,1.125l.251.448-.376.6.289.452-.031.527-.289.281c-.016.289-.033.571-.049.838l.3.385-.336.556-.128,2.212.253.289-.213,3.682.245.276c-.076,1.308-.152,2.627-.228,3.944l.273.335q-.122,2.11-.245,4.248l.148.152c.065.088.117.127.115.162-.061,1.131-.127,2.262-.193,3.382l.234.262c-.014.239-.03.512-.051.88l-.238.28c-.01.164-.022.385-.034.589l.254.289c-.048.833-.1,1.717-.147,2.549l.245.275q-.335,5.787-.673,11.594l.273.334c-.048.841-.1,1.69-.147,2.537l-.289.283.24.269c-.054.926-.111,1.9-.164,2.833l.283.317-.557,9.631.282.317c-.07,1.211-.142,2.472-.213,3.682l.245.275c-.076,1.309-.152,2.628-.228,3.944l.273.334c-.033.558-.065,1.124-.1,1.69l-.344.329.255.638c-.089,1.55-.192,3.283-.289,5l-.4.385-.3-.017c-.269-.278.1-.775-.352-.99.028-.473.055-.943.082-1.412l-.273-.332c.021-.371.043-.748.065-1.129l-.236-.256.066-1.139-.283-.317c.026-.454.056-.962.082-1.416l-.283-.317c.026-.455.056-.962.082-1.416l-.283-.317c.026-.456.056-.962.082-1.416l-.243-.273c.032-.556.064-1.12.1-1.684l-.273-.329c.033-.562.065-1.127.1-1.694l-.228-.256c-.066-.748.1-1.539.077-2.328l-.236-.264c.048-.832.1-1.716.147-2.549l-.283-.318.192-3.4-.283-.317c.042-.739.089-1.528.131-2.266l-.243-.272c.043-.745.087-1.5.13-2.252l-.273-.329c.049-.844.1-1.694.147-2.544l-.244-.274c-.04-.541.085-1.142.06-1.744l-.236-.265c.042-.737.089-1.527.131-2.266l-.283-.318.147-2.55-.25-.281.146-2.521-.263-.335.347-.418-.323-.481c.01-.172.021-.359.031-.535l-.228-.256.112-1.924-.3-.428c.035-.609.075-1.305.112-1.949l-.249-.28c.038-.643.075-1.3.113-1.956l-.273-.344c.037-.643.075-1.3.113-1.956l-.192-.232c-.218-.4.082-.819-.08-1.295l-.192-.212c-.006-.726.1-1.516.1-2.3l-.224-.252c.036-.62.074-1.273.112-1.924l-.3-.426c.04-.705.087-1.495.129-2.233l-.249-.279.13-2.241-.273-.342c.048-.834.1-1.682.146-2.525l-.273-.333.147-2.54-.235-.263c-.057-.458.069-.962.031-1.474l-.216-.243c.058-1,.117-2.031.177-3.062l-.245-.352a1.193,1.193,0,0,0,.283-.847l-.259-.323.13-2.245-.185-.221a.84.84,0,0,1-.072-.248c.009-.33.034-.659.052-.97l.289-.289-.227-.254c.064-1.1.128-2.221.192-3.347l-.245-.349.3-.455-.3-.463c.019-.335.041-.711.063-1.092l.284-.278-.232-.3.334-.355-.312-.6c.14-2.431.289-5.014.437-7.547l-.244-.275.289-.289c.015-.271.032-.554.048-.839l-.258-.313q.066-1.144.131-2.263l.265-.237-.213-.32c.038-.642.077-1.337.116-2.012l.252-.224-.238-.32q.153-2.65.311-5.371l.284-.274-.265-.323.342-5.92-.236-.31.333-.358-.289-.543.045-.783.273-.281c.01-.165.02-.351.032-.557l-.256-.311q.09-1.548.18-3.113l.192-.165c.047-.053.1-.086.1-.121q.431-7.36.854-14.708l.279-.249c.13-2.249.263-4.549.393-6.8l.317-.283c.13-2.249.263-4.549.393-6.8l.268-.239c.035-.6.069-1.2.1-1.781a1.7,1.7,0,0,0-.845-.138c-.329-.034-.661-.041-.991-.061l-.756-.044-.481-.361-1.208,1.164c-.415-.178-.536.106-.761.2l-.5-.029-.336.252-.866-.05-.329-.577-.657-.038c-.22-.116-.289-.451-.593-.3l-.673-.793c.009-.158.02-.344.033-.577l-.448-.184c-.245-.577-.512-1.132-.714-1.708-.116-.332-.422-.614-.371-.974.055-.393-.361-.626-.259-1.039.042-.171-.192-.393-.216-.6a1.206,1.206,0,0,0-.165-.645c-.2-.277.05-.74-.32-.993.115-.554-.436-1.023-.206-1.6.029-.073-.137-.222-.235-.37.013-.238.03-.517.046-.8l-.265-.332.289-.289c.021-.372.043-.749.064-1.122l.269-.239c.021-.361.044-.769.066-1.133l.3-.264c.031-.528.062-1.087.1-1.648l.344-.385c.013-.235.032-.551.047-.818l.278-.247c.015-.267.032-.547.048-.827l.311-.3.032-.547.3-.294c.009-.141.016-.283.027-.469l.624-.962c-.122-.466.361-.709.41-1.112.435-.213.065-.86.563-1.038-.021-.424.533-.662.356-1.123l.546-.487c.02-.7.59-1.165.8-1.788.4-.2.506-.63.746-.952.206-.274.279-.645.475-.93.376-.544.673-1.127,1-1.7a17.634,17.634,0,0,0,.893-1.606c.318-.163.225-.474.289-.738.027-.117.175-.206.289-.325.014-.256.031-.537.047-.818l.31-.3c.011-.184.021-.372.033-.56l.272-.243.1-.891.265-.236c.021-.361.044-.769.065-1.133l.289-.254c.028-.486.058-.992.086-1.477-.2-.2-.224.068-.335.114-.7.018-1.391-.052-2.063-.07l-.265.236-1.609-.1-.559.322-.494-.373c-.192.2-.425.421-.633.668-.192.226-.555.078-.711.358-.177.317-.586.226-.812.456-.2.208-.446.043-.673.085a2.6,2.6,0,0,0-1.078,1.347c-.076.192-.289.267-.312.428a.8.8,0,0,1-.243.473c-.115.12-.138.325-.242.46a3.152,3.152,0,0,1-.418.385c-.141.126-.28.255-.424.376-.18.151-.365.3-.513.415-.012.206-.02.347-.03.507-.112.315-.432.454-.658.681-.2.2-.421.385-.655.589a2.375,2.375,0,0,0-.645.056c-.16.057-.267.255-.481.2a.557.557,0,0,0-.618.235l-2.566-.148-.272-.275c-.462.155-.706-.385-1.127-.368-.121-.294-.49-.235-.655-.444-.179-.228-.428-.129-.636-.2-.161-.056-.289-.28-.437-.288-.481-.015-.488-.728-1.006-.642-.22-.338-.664-.512-.68-1.012a.59.59,0,0,0-.349-.415c-.641-.192-.879-.719-1.118-1.25l-.259-.026-.539-.586c-.336-.8-.5-1.463-1.2-1.778a.77.77,0,0,1-.529-.724c-.01-.182-.215-.354-.263-.6-.036-.187-.192-.376-.254-.6a2.085,2.085,0,0,0-.449-.807c-.192-.217-.2-.538-.365-.7-.345-.335-.4-.809-.707-1.172l.047-.81-.5-.565c.01-.164.02-.347.036-.609L303,86.327l.055-.942c-.334-.223-.256-.662-.5-.945-.087-.1.006-.356.013-.5-.187-.317-.519-.44-.548-.845-.016-.231-.3-.446-.214-.751.061-.228-.269-.359-.234-.459.136-.385-.443-.521-.259-.9.15-.309-.23-.456-.26-.744s-.219-.552-.24-.891a3.292,3.292,0,0,0-.471-1.025l.1-1.605-.267-.323.289-.279-.226-.254c.06-1.039.122-2.11.184-3.181l.233-.207.168-1.494c.411-.163.151-.6.352-.848a1.924,1.924,0,0,1,.217-.192c.016-.274.032-.556.048-.836l.31-.3c.011-.185.021-.372.033-.56l.272-.243c.021-.163.05-.385.079-.608l.265-.236c.027-.455.056-.962.082-1.417l.582-.518a.625.625,0,0,0,.036-.128c.042-.708.084-1.416.125-2.141l.3-.3c.026-.455.054-.925.081-1.392l.31-.3.082-1.409.218-.192c.179-.3-.013-.763.414-.962l.063-1.078.253-.225c.187-.42-.1-.953.283-1.316.28-.268-.045-.8.456-.949l.065-1.124.31-.3.044-.77.619-.944c-.155-.464.362-.707.365-1.141,0-.347.481-.577.323-1.008l.3-.3.032-.547.31-.3.048-.835c.335-.317.759-.55.889-1.043.016-.278.032-.556.047-.811.427-.441.534-1.058.957-1.461.087-.577.724-.929.66-1.574a16.779,16.779,0,0,0,1.058-1.818,9.012,9.012,0,0,1,.585-1.022,9.985,9.985,0,0,0,.74-.957,10.882,10.882,0,0,1,.657-1.139c.148-.219.169-.528.446-.655s.218-.487.437-.666.147-.537.442-.658c-.121-.385.481-.465.35-.849l.6-.532c.012-.192.019-.335.028-.481a1.3,1.3,0,0,1,.152-.216c.329-.313.741-.556.866-1.04.406-.192.5-.636.74-.957.155-.207.216-.492.458-.646.361-.229.511-.625.764-.939a5.521,5.521,0,0,0,.784-.932c.217-.42.7-.667.962-1.133.233-.417.7-.681.968-1.132a4.773,4.773,0,0,1,1.019-.945c.012-.113.021-.2.027-.26.414-.527,1.1-.769,1.292-1.452.313-.261.572-.606,1.026-.644l.12-.378,3.5-3.114.192-.475.318.018,1.443-1.352h.293a2.515,2.515,0,0,1,.65-.839c.24-.192.607-.324.45-.726l.492-.1c.6-.535,1.2-1.073,1.8-1.6.341-.3.823-.365,1.138-.732a9.47,9.47,0,0,1,.946-.861l1.058-.944.953-.849.346-.011.538-.684-.055-.043c.673-.6,1.326-1.215,2.02-1.785a3.768,3.768,0,0,1,1.326-.974c.465-.134.673-.769,1.25-.791L345.3,6.06l.449-.761c0-.087.016-.275.027-.46l.3-.289-.221-.248c-.077-.566.089-1.168.036-1.77l-.215-.241c.014-.248.03-.523.043-.748L347.185.235l.667.039L348.2,0l.553.032.279.289.339-.277c.385.073.66.526,1.14.308l.214-.192.289.267L354.069.6c.385.34.884.5,1.172.934.583-.006.521.531.742.844.185.263.114.648.441.824.279.15.133.545.366.7.385.252.335.745.638,1.034-.021.376-.043.753-.065,1.128l.73.819.3.788c-.007.123-.023.4-.038.673.306.255.2.72.528.943-.1.385.379.612.244,1.038-.072.227.34.425.223.743-.1.272.242.385.241.607,0,.281-.063.566.22.758-.172.481.223.849.273,1.3A1.64,1.64,0,0,0,360.794,15l-.065,1.129.3.423-.047.818.247.277-.047.821c.226.2.2.516.361.712.2.257.133.631.415.833-.119.314.33.445.24.748.377.551.435,1.261.934,1.766a1.121,1.121,0,0,1,.308.84c-.074.417.312.637.284,1.039a1.763,1.763,0,0,0,.376.962c.159.241.006.457.133.765l.2.241q-.032.557-.065,1.129l.236.255c-.021.365-.045.777-.066,1.14l.283.317c-.021.361-.044.769-.067,1.162.421.237.132.664.313.9.225.289.216.7.534.932.271.2.14.625.44.815-.013.239-.027.474-.044.769a.952.952,0,0,1,.192.289c.163.637.62,1.177.61,1.873,0,.069.117.141.187.219-.033.558-.065,1.122-.1,1.682.323.236.242.673.506.95.088.1-.006.358-.015.523l.238.266c-.047.809-.1,1.651-.139,2.414l.779,1.725c-.016.273-.037.649-.06,1.022l.268.326-.131,2.264-.257.229c-.13.452-.043.974-.138,1.443-.107.123-.289.254-.271.326.124.434-.324.645-.355,1-.033.377-.046.755-.068,1.133a3.51,3.51,0,0,1-.052.705,6.236,6.236,0,0,1-.3.577c-.065.165-.016.441-.122.512-.232.154-.171.415-.318.588-.346.4-.476.945-.839,1.347-.052.057-.042.171-.047.192l-2.283,2.034-.511-.03-.256.228-1.328-.077-.555.321-.468-.334-1.356-.078-.311.245-.834-.048c-.148-.315-.586-.241-.752-.529-.192-.34-.6-.385-.866-.636-.214-.2-.666.024-.831-.362l-.989.481-1.347-.078-.266.237c-.552.052-1.154-.087-1.755-.049l-.242.216-.913-.053-.413.562-.973-.057-.649.548-.474-.028-1.027.5-.83-.048-.385.513-.418.01-.74,1.172c-.376.327-.685.031-.934.273a1.935,1.935,0,0,1-.589.269c-.006.1-.011.192-.018.323l-.522.148-.1.377-2,1.785-1.377,1.226c-.626.051-.876.649-1.347.919a12.661,12.661,0,0,1-1.183.535l-.03.289-.742.661c-.283.252-.552.519-.851.749-.264.2-.233.572-.53.778a3.132,3.132,0,0,0-.577.8l-.044.77-.311.316c-.01.167-.02.354-.032.54l-.31.3c-.01.184-.021.372-.033.577-.527.309-.658.985-1.2,1.318-.01.175-.021.36-.034.577-.473.227-.592.762-.933,1.12q-.02.354-.04.708c-.044.075-.072.175-.138.222a3.122,3.122,0,0,0-1.075,1.374c-.1.248-.312.333-.436.519s-.225.376-.337.565l-.5.843c-.024.415-.059,1.016-.09,1.565l-.278.248c-.015.266-.032.546-.048.837a1.576,1.576,0,0,1,.322.705c.253.192.719-.137.8.365l2.014.116.316.311,1.407.082.311-.259,1.122.065.311-.258,3.969.23c.071.08.129.207.2.213.589.049,1.047.567,1.607.453.585.336,1.113.651,1.654.94a1.085,1.085,0,0,0,.416.032c.261.253.426.624.852.655.289.367.8.4,1.122.681.273.24.586.427.844.658a20.869,20.869,0,0,1,1.526,1.676c.182.2.11.522.355.715a2.655,2.655,0,0,1,.419.455l.312.749-.53.9c-.009.156-.025.435-.045.784l-.647.406c.1.391-.129.515-.289.664q-.051.866-.1,1.695l-.275.245c-.021.361-.045.77-.065,1.133l-.289.258c-.02.348-.041.719-.061,1.04-.112.253-.4.341-.343.624-.516.331-.632,1.009-1.185,1.353-.026.441-.053.906-.078,1.34-.233.272-.525.481-.62.76-.121.356-.449.458-.637.723l-.032.551c-.256.262-.566.444-.673.848a2.089,2.089,0,0,1-.532.755,2.748,2.748,0,0,1-.433.369,6.088,6.088,0,0,1-1.731,2.353c-.012.208-.023.4-.034.59l-1.181,1.038-.029.5c-.16.338-.572.408-.628.769-.051.324-.394.385-.533.617-.157.262-.21.613-.417.809-.434.41-.653.978-1.112,1.368a2.009,2.009,0,0,0-.729.809c-.107.289-.361.518-.311.866-.438.192-.224.665-.425.962-.174.255-.339.518-.54.827l-.044.769-.256.228c-.016.289-.035.6-.056.962l.385.107c.385-.5,1.041-.582,1.459-1.031.385-.411.83-.76,1.146-1.044l.509-.142c.018-.314.035-.6.051-.874.344-.248.326-.775.754-.95a2.193,2.193,0,0,1,.758-.944c-.024-.37.218-.4.507-.472a1.923,1.923,0,0,0,.806-.45c.216-.2.519-.192.707-.362.26-.23.524-.124.782-.142l.334-.272,4.232.245c.289-.408.691-.192,1.046-.214.284.117.441.559.858.334l.5-.308.419.334.289-.231.289.289.667.038a4.435,4.435,0,0,1,.746.376c.326.253.481.712.9.846.4.13.5.536.811.753-.016.28-.033.561-.052.9.487.533.962,1.124,1.514,1.635s.673,1.32,1.326,1.764l.289.031.116.456.962,1,.182.022a2.429,2.429,0,0,0,.549.908,1.07,1.07,0,0,1,.408.693c.029.289.373.5.722.547.076.741.713,1.219.887,1.913.4.278.417.795.709,1.141-.013.236-.027.472-.043.757l.237.355c-.013.216-.029.492-.057.984,0,.014-.385.054-.2.481l.179.233c-.026.446-.053.916-.081,1.4-.33.182-.267.664-.616.86-.016.277-.032.558-.048.832a4.643,4.643,0,0,1-.972.831,3.411,3.411,0,0,0-.927.594l-1.122-.064-.925-.6-.8-.046c-.319-.589-1.085-.874-1.177-1.654l-1.323-1.47c.174-.385-.413-.531-.248-.9-.51-.419-.568-1.169-1.119-1.55-.369-.257-.363-.726-.64-1.03s-.566-.635-.85-.952c.1-.347-.218-.481-.356-.71a2.4,2.4,0,0,1-.266-.6,4.3,4.3,0,0,0-1.035-1.466l-1.576-.091c-.025.246-.048.469-.067.656-.413.525-1.08.77-1.306,1.443-.047.14-.271.237-.431.32a10.822,10.822,0,0,0-1.089.481c-.164.109-.345.067-.464.35a1.659,1.659,0,0,1-1.162.866c-.006.1-.012.192-.016.277l-.3.289c0,.1-.039.236.009.279.319.3.207.936.785,1.026.272.042.333.309.514.445-.091.462.394.593.536.984l-.046.808c.615.4.6,1.176,1.02,1.748-.047.809-.1,1.657-.146,2.532-.643.385-.77,1.159-1.274,1.754l.283.5c-.007.111-.017.3-.03.51l-.283.28c-.01.175-.021.363-.032.555l.25.311-.338.334.281.633a.577.577,0,0,1-.289.688c-.059,1.02-.118,2.053-.177,3.064a1.072,1.072,0,0,0-.354.894l.261.322c-.01.177-.021.365-.032.557l-.2.192a.854.854,0,0,0-.1.239c-.029.328-.042.658-.06.967l.25.314c.078.319-.209.411-.345.659l.248.481-.241.26-.047.816-.31.3c-.016.273-.032.556-.049.841l.258.311-.1,1.7-.266.237.213.32c-.018.319-.039.689-.063,1.1l-.327.438.27.458-.267.265-.082,1.405m1.555-31.453c-.247-.2-.422-.289-.557.01.157.163.315.163.557-.01m-1.432.526.1.107a.886.886,0,0,0,.1-.185c.007-.023-.054-.064-.083-.1l-.112.177" transform="translate(-300.174)" fill="#ce371c"/>
      <path id="Path_3634" data-name="Path 3634" d="M353.607,1544.343l.273.329c-.011.187-.021.373-.031.54l.272.351-.08,1.386.228.256c-.1,1.761-.2,3.547-.309,5.337l.27.374c-.013.242-.03.519-.046.8l.272.352q-.047.813-.1,1.69l-.289.281c-.118.278.142.407.244.586l-.065,1.128c-.276.328-.276.328-.362.881l-.507.155-.156,1.222c-.409.162-.144.612-.357.844a2.644,2.644,0,0,0-.26.456,3.751,3.751,0,0,1-.673.667c-.251.027-.532-.023-.685.1a.763.763,0,0,1-.647.151c-.234-.039-.316.262-.464.243-.282-.034-.418.155-.6.266l-.714-.041-1.065.487-.717-.042-.36.271-.53-.031-.338.273-1.4-.081-.333.274-1.336-.077c-.333.171-.607.317-.884.455s-.673-.13-.883.255a1.162,1.162,0,0,0-.858-.3l-.321.26-1.406-.081-.289-.3-.289-.017c-.254-.431-.762-.673-.9-1.211s-.854-.734-.822-1.378l-.327-.1a3.429,3.429,0,0,1-.942-1.346c0-.307,0-.586-.006-.866-.453-.242.022-.857-.452-1.1.021-.37.043-.745.064-1.119l-.272-.344.032-.542-.273-.332c.016-.279.033-.562.049-.842l-.239-.267c.021-.36.044-.769.065-1.133-.11-.123-.23-.192-.227-.263.032-.593-.365-1.093-.276-1.722.137-.972.135-1.964.192-2.892l.289-.254c.021-.36.042-.733.064-1.107l.306-.3a1.532,1.532,0,0,1,.314-.866,10.912,10.912,0,0,0,.583-1.022c.165-.3.127-.683.4-.974.2-.213.233-.583.433-.8a1.164,1.164,0,0,0,.243-.62c.05-.2.273-.385.289-.577a.914.914,0,0,1,.342-.714c-.059-.5.593-.522.655-1,.041-.316.359-.6.59-.949.007-.111.017-.3.028-.481l.31-.3c.037-.656.076-1.315.114-1.964l.289-.28q.018-.319.032-.555l-.234-.321.258-.23-.234-.321.12-2.077c.142-.107.363-.281.591-.443s.355-.385.7-.409c.226-.015.432-.325.644-.5l.448.026c.369-.1.538-.481.841-.634.03-.514.057-.984.083-1.443l-.245-.319c.132-.117.132-.117.962-.071.192.338.656.278.853.6.076-.067.149-.188.216-.185.592.029,1.1-.456,1.677-.25.262-.045.362-.378.673-.243l.289.283,1.385.08c1.545,1.266,1.263.866,2.813,3.437-.016.281-.033.564-.051.884l.5.2c-.01.392.281.634.52.907.15.375-.206.85.234,1.168a1.6,1.6,0,0,0,.257,1.021,7.1,7.1,0,0,0,.517,1.08c-.027.461-.054.931-.081,1.393l.227.256c0,.283.009.6.013.921.458.24-.021.856.455,1.1l-.062,1.058.524,1.058c-.007.115-.017.3-.028.487" transform="translate(-330.203 -1386.556)" fill="#ce371c"/>
      <path id="Path_3635" data-name="Path 3635" d="M810.179,1526.115l.316.018.84.951a5.849,5.849,0,0,0,.762.834c.363.274.321.755.639,1.04l-.034.577c.4.258.5.723.756,1.227-.036.627-.08,1.373-.123,2.116a3.371,3.371,0,0,1-.352.685,5.292,5.292,0,0,1-.733.665,4.082,4.082,0,0,1-.663.481c-.267.142-.626.159-.837.349-.269.244-.533.089-.8.154l-.312.254-1.382-.08-.316.241c-.336.1-.385-.257-.7-.326l-.4.217c-.2-.109-.5-.178-.634-.362-.166-.222-.419-.151-.591-.313-.155-.146-.385-.211-.554-.346a3.262,3.262,0,0,1-.385-.417l-.471-.529-1.285-1.443c-.012-.447-.433-.764-.256-1.183-.8-.851-.912-2.031-1.521-2.956q.02-.353.04-.707l-.74-1.668.056-.962c-.084-.244-.385-.357-.256-.657l.294-.281.131-2.256c.221-.406.742-.334,1.025-.651l1.131.066.277.288.31-.247.226.254,1.051.06c.169.128.3.311.453.326a.69.69,0,0,1,.528.406c.161.272.523.162.673.43.117.205.438.073.571.33a2.9,2.9,0,0,0,.461.534l.377.423c.408.458.843.9,1.217,1.38.344.445.981.53,1.206,1.067" transform="translate(-753.635 -1379.135)" fill="#ce371c"/>
    </g>
    <path id="Path_3636" data-name="Path 3636" d="M1074.973,702.757q.079-.476.157-.952l-1.443-1.654q-1.161,1.613-2.322,3.226a2.569,2.569,0,0,0-.46.325c-.241.226-.416.5-.665.72a5.812,5.812,0,0,0-.538.638c-.282.333-.714.509-.954.889a3.014,3.014,0,0,1-1,.85c-.362.27-.492.675-.874.939-.559.385-1.14.831-1.675,1.258a1.352,1.352,0,0,1-.487.287c-.538.1-.594.444-.926.79l-.3-.015c-.552.423-1.1.85-1.66,1.265a14.866,14.866,0,0,1-1.806,1.265,16.745,16.745,0,0,0-1.675,1.16,4.671,4.671,0,0,1-1.238.718c-.307.119-.527.332-.885.45-.315.1-.614.449-.987.484a2.85,2.85,0,0,1-1.118.6,4.082,4.082,0,0,1-1.049.34c-.348.341-.815.085-1.166.416-.363.048-.649-.041-.943.238-.02.019-.079.016-.136.015-.228,0-.5-.018-.735-.037l-.353.248-4.364-.213-.283-.289-1.154-.057c-.254-.4-.748-.167-1.035-.529-.278-.039-.559-.077-.835-.118a8.6,8.6,0,0,0-1.024-.543c-.209-.085-.453,0-.624-.217-.14-.179-.395-.145-.583-.292-.225-.177-.5-.331-.742-.51a2.909,2.909,0,0,0-.912-.478.433.433,0,0,1-.2-.163,5.46,5.46,0,0,0-1.03-1.062,7.934,7.934,0,0,1-1.2-1.04c-.1,0-.2-.009-.3-.014l-.213-.546-.312-.035c-.116-.141-.249-.261-.366-.4a1.715,1.715,0,0,1-.276-.554,3.1,3.1,0,0,0-.708-.811c-.3-.286-.285-.711-.614-.977-.4-.322-.432-.823-.794-1.19a1.332,1.332,0,0,1-.25-.56,2.491,2.491,0,0,0-.166-.465,3.848,3.848,0,0,0-.455-.438q.048-.4.1-.8l-.492-1.037q.073-.636.145-1.272l-.225-.245q.045-.4.09-.8l-.267-.335c.033-.292.062-.582.1-.875a2.563,2.563,0,0,1,.776-.551c.5-.16.766-.538,1.235-.728a4.954,4.954,0,0,0,1.333-.85,5.418,5.418,0,0,1,1.3-.513,2,2,0,0,0,1.263-.56,5.3,5.3,0,0,1,1-1.009l.3.013a2.511,2.511,0,0,1,1.09-1.058h.57c.3-.264.577-.542.853-.831a7.106,7.106,0,0,1,1.229-1.021,1.023,1.023,0,0,0,.849-.525,9.364,9.364,0,0,1,1.6-1.5,4.054,4.054,0,0,1,1.29-.621,2.244,2.244,0,0,1,.962-.275,1.931,1.931,0,0,0,.793-.268c.305-.143.6-.3.9-.458.506.095.978-.223,1.484-.264l1.234-1.058.454.02.458-.265.512.023,1.559-1.251c-.016-.285.258-.4.423-.6.065-.458.121-.908.2-1.371.005-.033.093-.082.123-.1.194.007.385.017.578.025.6-.4.832-1.048,1.32-1.552.026-.181.051-.362.076-.543l.345-.3.163-1.156c-.178-.141-.156-.42-.269-.579-.424-.594-.91-1.085-1.379-1.629-.726-.275-1-.881-1.517-1.421-.044-.046.016-.214.032-.276-.455-.522-.911-1.037-1.365-1.557q.06-.442.12-.885l-.236-.263c.038-.289.078-.576.116-.867a.915.915,0,0,1-.249-.339,4.733,4.733,0,0,0-.475-1.383,6.5,6.5,0,0,0-.958-1.231c-.312-.383-.626-.77-.935-1.153-.369-.042-.655.016-.942-.284a2.7,2.7,0,0,0-.84-.43c-.241-.014-.476-.021-.714-.032l-.23-.263-1.849-.08-.356.272-1.217-.053-.359.276c-.319.047-.4-.181-.648-.33-.269.039-.471-.061-.7.127l-.1.826.495,1.07q-.157,1.27-.314,2.54l.23.261c-.111.9-.219,1.787-.332,2.685-.186.131-.5.3-.585.5a1.586,1.586,0,0,1-.542.676c-.2.145-.473.311-.542.5-.129.35-.345.451-.575.671-.194.187-.4.251-.516.494-.018.154-.037.314-.057.469a3.053,3.053,0,0,0-1,.575,5.834,5.834,0,0,1-.834.67c-.356.222-.462.611-.754.869a17.973,17.973,0,0,0-1.362,1.337,9.793,9.793,0,0,1-1.505,1.27c-.082.059-.2.122-.227.189-.19.491-.679.677-.96,1.059a5.246,5.246,0,0,1-1.116,1.134c-.119.089-.306.179-.334.284-.12.449-.443.6-.755.855-.367.3-.449.7-.851.974-.313.212-.685.393-.84.784a.883.883,0,0,1-.248.351c-.035-.1-.068-.2-.1-.3-.809-.212-1.092-1.253-1.777-1.66a4.588,4.588,0,0,1-.37-.742,1.132,1.132,0,0,0-.266-.594c-.2-.208-.388-.417-.576-.628a3.066,3.066,0,0,1-.371-.427c-.107-.179-.132-.442-.276-.577-.3-.277-.321-.623-.546-.93s-.5-.568-.758-.85c-.317-.353-.642-.7-.961-1.049q.016-.154.031-.308l-.571-.3c0-.1.005-.2.008-.31-.287-.3-.579-.658-.865-.948a6.325,6.325,0,0,1-.758-.867c-.257-.363-.728-.4-1-.749a2.166,2.166,0,0,0-.489-.52,4.049,4.049,0,0,0-.6-.32c-.34-.149-.639-.337-.972-.5a4.265,4.265,0,0,1-1.017-.723,1.754,1.754,0,0,0-.706-.391c-.276-.083-.578-.034-.758-.315-.344.027-.415-.277-.722-.35a4.71,4.71,0,0,0-.475-.026c-.1-.1-.2-.2-.3-.3l-.5-.022-.81-.456.321-.3c.035-.334.049-.67.1-1a.532.532,0,0,1,.117-.243,2.191,2.191,0,0,1,.211-.2q.08-.869.157-1.738l-.283-.354q.048-.516.1-1.031l-.8-1.861,1-.769,1.148.05.3-.254,1.819.079.369-.289,1.813.078.378-.288.741.032.443-.563.634.027.373-.269.879.037.378-.289,1.821.078.71-.572a1.391,1.391,0,0,0,1.029-.275l.85.036.289-.244h.97l.288-.239.98-.009.306-.256,1.531.065.375-.289,1.513.065.391-.289,1.82.078.32-.267,3.047.13.487-.317,2.4.1.294-.244.6.026.385-.293.913.039.38-.294.913.038.506-.418c.013-.1.024-.2.039-.3a2.583,2.583,0,0,0,1.267-.8,3.248,3.248,0,0,0,.5-.873c.132-.329-.106-.518-.212-.789a2.511,2.511,0,0,0-1.059-1.293c-.286-.176-.574-.285-.847-.474a6.456,6.456,0,0,1-.673-.753c-.58-.112-1.067-.422-1.65-.53-.081-.015-.155-.159-.2-.224-.623-.029-1.223-.048-1.855-.085-.039,0-.111-.092-.157-.146a.5.5,0,0,0-.154-.165c-1.059-.047-3.594-.154-4.31-.184s-.059.006-.3-.023.017-.072-.147-.114c.08-.53.123-1.06.19-1.59l.3-.249q.048-.441.1-.883c.441-.5.716-1.1,1.154-1.6q.063-.541.124-1.082l.78-1.142.127-1.1.288-.243c.145-.94.214-1.889.365-2.828l.329-.28.4-3.436c-.227-.317-.522-.468-.535-.893l.341-.416q.07-.608.141-1.217l-.245-.385q.049-.42.1-.84c-.293-.466-.351-1-.813-1.347q.038-.327.075-.654a4.774,4.774,0,0,1-.236-1.016l-1.044-1.206a3.477,3.477,0,0,0-.991-1.861,2.454,2.454,0,0,0-.341-.021c-.168-.326.1-.138-.17-.585s-1.4-1.153-1.807-1.7c-.428-.3-.9-.385-1.235-.786-.45-.544-.9-1.088-1.374-1.615a1.852,1.852,0,0,1-.375-.019,17.711,17.711,0,0,1-1.906-1.043l-.481-.018-.314-.339-.945-.037-.326-.347-1.275-.049c-.224-.451-.688-.267-1.053-.5-.575-.368-1.177-.133-1.8-.311l-.2-.238c-.663-.092-1.331-.031-1.99-.152-.084-.1-.167-.192-.25-.289-.475-.012-.95-.048-1.425-.045a.616.616,0,0,0-.288.087c-.09.049-.169.153-.257.211-.609-.021-1.218-.045-1.828-.068l-1.223.623-1.485-.057a2.629,2.629,0,0,1-1.29.557,2.88,2.88,0,0,0-.713.281c-.3.128-.588-.057-.878.217-.179.169-.513.081-.67.32-.479.128-.874.443-1.381.4a8.6,8.6,0,0,1-.833.562c-.3.17-.648.237-.959.414-.276.156-.424.475-.779.494a18,18,0,0,0-1.8,1.217c-.182-.007-.363-.016-.545-.02-.5.3-1.017.634-1.483.963-.518.366-1.126.428-1.606.841-.314-.014-.629-.024-.943-.038-.129.108-.254.216-.386.325-.168-.02-.45-.1-.591-.008-.423.278-.863.324-1.169.738-.053.3.011.528-.217.769-.391-.022-.676-.051-.951.269l-.614-.024a1.889,1.889,0,0,1-.77.391l-.436.817q-.155,2.291-.312,4.581l.276.339q-.02.3-.04.593l-.371.43a4.393,4.393,0,0,0,.929,1.573,4.931,4.931,0,0,1,.813.913c.281.391.723.477,1.053.8a4.206,4.206,0,0,0,1.405.687,2.7,2.7,0,0,1,.523.355l1.45.059.246.275,1.878.077.348-.279c.407.017.817.033,1.222.051.329-.228.477-.511.9-.6s.559-.569,1.046-.581c.07,0,.173-.094.247-.159a6.894,6.894,0,0,0,1.134-1.242,7.235,7.235,0,0,1,1.236-1.213c.1-.1.105-.267.153-.392.132,0,.268.011.4.015a1.182,1.182,0,0,1,.163-.388c.207-.243.441-.439.666-.677.253-.268.577-.442.732-.8a2.043,2.043,0,0,1,.629-.679,5.5,5.5,0,0,0,1.056-.631c.116-.118.37-.116.532-.218.438-.273.949-.381,1.254-.835l.59.023c.38-.2.759-.391,1.139-.59.5.139.857-.177,1.285-.352a6.339,6.339,0,0,0,1.023-.463c.07.095.142.184.213.277l.955.037.385-.313.548.021.563-.328c.174.128.355.256.524.385.2,0,.258.027.5.014a2.982,2.982,0,0,1,.916.066,1.755,1.755,0,0,0,.965.331c.2.225.5.274.72.461.292.247.621.245.85.582s.644.376.92.712.788.38.946.844a1.02,1.02,0,0,0-.026.313c.155.452.324.9.491,1.347q-.025.237-.049.474l.28.347q-.144,1.4-.289,2.806l-.36.335q-.128,1.234-.256,2.468l-.318.273q-.064.619-.128,1.238l-.366.313q-.079.77-.159,1.539l-.673.577a2.533,2.533,0,0,1-.577,1.331,6.693,6.693,0,0,1-.851,1.052c-.256.363-.467.723-.7,1.109a2.648,2.648,0,0,1-.5.738c-.247.217-.414.548-.65.794-.287.3-.644.548-.946.836a2.141,2.141,0,0,0-.245.479c-.425.377-.782.686-1.242,1.055a3.964,3.964,0,0,1-1.48,1.035,7.959,7.959,0,0,1-1.417.861l-1.212-.051c-.287.384-.72.187-1.091.384-.487.259-.9.049-1.409.14l-.422.272c-.317.026-.6-.115-.91.01l-.246.212-1.464-.063-1.154.572-1.05-.044-1.14.54-.754-.032-1.125.548-.518-.022-.367.289-.588-.025-.376.288-.879-.037a13.166,13.166,0,0,1-2.014.8l-.721-.03c-.327.141-.618.321-.95.459-.384.16-.788-.026-1.079.35-.382-.068-.619.129-.979.227-.394.108-.782-.1-1.114.24-.4.009-.787.022-1.18.033.032.151-.044.249-.184.16-.1-.483.092-.942-.107-1.409l-.619-.027-.355.289-3.254-.14-1.154.946c-.062.161-.119.32-.185.481-.157-.023-.48-.1-.6-.014-.42.291-.85.277-1.151.7-.009.184-.022.369-.033.554.176.283.47.431.553.768-.1.316-.335.422-.422.768-.053.21-.415.36-.522.579.1.114.2.221.306.332-.616.033-.9.372-1.323.769q-.1,1.607-.192,3.214l.265.288c-.024.387-.046.775-.071,1.162a11.055,11.055,0,0,0,1.173,1.215,6.256,6.256,0,0,0,.913.652c.5.3.913.709,1.495.242.646-.025,1.179-.376,1.83-.274a1.939,1.939,0,0,0,.468-.011c.184-.269.368-.54.552-.808a1.475,1.475,0,0,0,.441.007c.226-.052.429-.181.652-.245a2.971,2.971,0,0,1,.951-.283,2.488,2.488,0,0,0,.9-.37,3.733,3.733,0,0,1,.9-.376c.457-.127.639-.591,1.145-.565a12.211,12.211,0,0,1,1.935-.854,1.249,1.249,0,0,0,.316-.2c.276.011.553.024.829.036l.348-.277.462.02c.155-.193.311-.385.465-.578a1.587,1.587,0,0,0,1.044-.219c.086-.047.265.078.351.112-.009.158-.024.312-.035.468a9.569,9.569,0,0,0-1.146,2.214c-.17.125-.476.295-.542.485-.154.447-.412.542-.789.732a2.225,2.225,0,0,0-.861.771c-.226.316-.492.588-.392,1.015-.11.1-.218.2-.328.3-.015.2-.029.392-.045.587a2.388,2.388,0,0,0-.547.479c-.163.22-.288.463-.437.692a3.7,3.7,0,0,1-.9,1.225,4.7,4.7,0,0,1-1.4,1.734.194.194,0,0,0-.046.126,3.335,3.335,0,0,0-.028.38c-.213.18-.426.358-.639.537q-.03.421-.059.842L992.342,686q-.025.365-.05.73l-.328.3q-.029.412-.057.825l-.269.228q-.127,1.849-.253,3.7l.25.264-.058.834.258.272q-.048.68-.1,1.361l.276.328a2.73,2.73,0,0,0,.526,1.434c.232.166.512.177.688.422a6.279,6.279,0,0,0,.42.56,2.977,2.977,0,0,1,1.524.6,1.037,1.037,0,0,0,.289.052l.348-.254.577.027c.082.082.165.161.247.244.264-.116.511-.187.772-.327s.4-.345.729-.425a2.327,2.327,0,0,0,.718-.483c.161.009.327.008.478.027.3-.19.354-.1.71-.357s1.015-.85,1.429-1.169c.026-.187.03-.352.048-.53l.481-.089.432-.4c.027-.341.035-.568.346-.769q.034-.411.067-.822l.33-.3.091-1.106-.272-.313a1.679,1.679,0,0,0-.446-1.347,5.065,5.065,0,0,1-.541-1.062.979.979,0,0,1,.025-.421c.217-.194.435-.385.653-.578.023-.3.049-.59.071-.891.454-.109.237-.486.413-.774.247-.4.7-.51.923-.923a8.092,8.092,0,0,1,.66-1.032c.1-.132.052-.368.061-.529.262-.175.4-.365.734-.392l.335.3.546.025.5-.288.609.376c.273-.11.43-.323.745-.263l.335.315,1.179.053.242.264,1.106.05c.169.1.374.216.538.307.453.253.863.452,1.32.7.289.16.387.528.778.533.287.308.591.627.873.93.437.469.852.927,1.282,1.4l.463.154c0,.112,0,.225-.007.336a5.29,5.29,0,0,0-.615.261c-.245.133-.441.291-.669.441-.054.592-.112,1.183-.168,1.775l-.34.336q-.038.4-.075.8l-.942.769c-.01.111-.021.221-.031.332-.314.171-.627.34-.942.513-.016.074-.007.2-.064.253-.411.366-.83.686-1.251,1.038-.456.382-.882.748-1.37,1.114-.427.32-.716.773-1.3.844-.45.362-.918.73-1.357,1.094-.4.333-.772.662-1.163,1h-.389a6.878,6.878,0,0,0-1.577,1.563l-.408-.02c.024.367-.194.532-.465.74a3.2,3.2,0,0,0-.711.815c-.178.265-.413.434-.6.732a3.336,3.336,0,0,1-.852.737c-.018.193-.031.38-.047.571-.476.251-.654.721-.994,1.112-.017.215-.034.43-.051.644l-.358.518.3.367q-.1,1.184-.192,2.367l.99,1.039,1.98.1c.277-.267.668-.249.962-.489.432.005.587-.362.967-.492l.491.024c.358-.292.71-.572,1.069-.867.325-.267.655-.548.978-.821.108-.486.655-.577.739-1.073a3.141,3.141,0,0,1,.951-.6,1.713,1.713,0,0,0,.545-.394c.069-.469.6-.5.675-.969l1.05-.925.433-.073c.075-.155.149-.311.223-.467h.4c.1-.093.162-.173.271-.262.329-.269.664-.569,1.016-.818a2.721,2.721,0,0,1,1.145-.449c.429-.387.989-.529,1.436-.891a1.374,1.374,0,0,1,.287-.156l.756.036.432-.261c-.033.346-.07.692-.1,1.037-.5.314-.677.841-1.162,1.19a1.675,1.675,0,0,0-.519.62c-.169.319-.488.485-.7.827a3.577,3.577,0,0,1-.866.737c-.63.493-1.274,1.022-1.906,1.522-.01.1-.018.193-.027.289l-2.357,1.9c-.13,0-.261,0-.391,0-.027.418-.3.532-.591.811-.223.215-.252.537-.652.529a.633.633,0,0,0-.41.35c-.071.28-.169.327-.449.392a.712.712,0,0,0-.488.415c-.108.279-.221.3-.5.34a.476.476,0,0,0-.325.252,4.258,4.258,0,0,1-1.25,1.243c-1.491,1.232-3,2.428-4.508,3.641-.476.382-.705.9-1.219,1.237-.112.4-.489.6-.409,1.05l-.31.277q-.03.385-.061.769l-.309.269q-.041.519-.082,1.039l.659.688.282.014.3.289.827.04.257.222,1.015-.429,1.02.05.331-.234a1.013,1.013,0,0,0,.891-.23,6.144,6.144,0,0,0,1.615-.592c.4-.207.748-.5,1.161-.694a5.683,5.683,0,0,0,1.11-.85l.4-.074.214-.431.4-.061c.712-.566,1.411-1.129,2.13-1.694.028-.021.1,0,.138,0l.151.007,1.1-.88.025-.266,1.227-.489q.025-.268.051-.537a4.332,4.332,0,0,0,1.137-.444c.332-.253.771-.324,1.091-.588s.611-.533.935-.791a.71.71,0,0,0,.218.008c.171-.074.306-.15.466-.228l2,.1.409.391c-.018.181-.037.363-.056.544l-.33.289q-.052.512-.1,1.025l-.332.311q-.034.332-.068.664l-.655.944q-.034.337-.068.673l-.316.272q-.026.257-.052.514l-.327.278c-.013.133-.026.261-.039.4a3.519,3.519,0,0,0-.642,1.051c-.1.412-.4.52-.449.945-.04.325-.409.537-.35.914-.423.172-.262.575-.473.873-.4.571-.755,1.116-1.183,1.656-.089.387-.4.54-.686.778-.008.087-.017.172-.024.259-.56.417-1.1.858-1.64,1.3-.365.3-.835.319-1.184.668-.068.068-.269.027-.369.088-.594.365-1.289.4-1.766.95l-1.2-.06-.271.214c-.783,0-1.56-.1-2.343-.06l-.258.2-.848-.042-.289-.278-3.668-.185-.311-.281-1.392-.07-.247-.255c-.378-.019-.757-.037-1.135-.058-.143-.134-.271-.308-.424-.425-.219-.168-.5-.157-.654-.4s-.443-.234-.653-.4-.372-.39-.57-.572-.5-.172-.668-.4a1.441,1.441,0,0,0-.562-.535c-.454-.152-.6-.449-.927-.738.021-.4-.338-.507-.5-.83,0-.164.008-.331.009-.493-.186-.224-.43-.4-.6-.634s-.275-.532-.434-.779c.011-.129.017-.254.027-.381l-.522-.989.046-.673-.24-.324.047-.684c-.134-.24-.278-.474-.406-.718-.253.028-.319-.067-.616-.01s-.368.449-.528.7c-.179.286-.34.569-.526.849a2.362,2.362,0,0,0-.358.79,3.209,3.209,0,0,1-.567.809l.288.4-.356.4c-.017.242.024.568-.123.763a1.172,1.172,0,0,0-.256.954c.088.173.176.349.264.524l-.347.316q-.034.509-.067,1.018c.113.18.266.235.238.473l-.329.46.242.414-.237.192.266.334q-.032.5-.065,1l.239.244q-.024.378-.049.755l.272.3q-.016.247-.033.494l.272.3c-.01.163-.023.326-.032.49a8.119,8.119,0,0,0,.764.761c.275.248.236.623.541.83.24.162.22.415.351.633.18.3.52.265.763.488.37.339.569.764,1.1.891a6.279,6.279,0,0,0,1.243.92,2.4,2.4,0,0,0,1.288.526c.2.188.323.41.6.482s.4.332.706.3.42.289.7.278c.406-.016.6.282,1,.327a2.257,2.257,0,0,1,.894.435c.223.139.446.085.683.148.181.173.363.351.544.525l1.38.071.3.275.52.027.324.276,1.363.07.223.227.879.082.5.506,1.681.086.329-.238,1.591.082,1.077-.463,2.013.1a3.624,3.624,0,0,1,1.658-.385l.848-.733a.634.634,0,0,0,.733.281,2.394,2.394,0,0,0,.833-.35,6.063,6.063,0,0,1,1.192-.538c.077-.026.227-.063.232-.092.073-.461.513-.527.714-.892a4.738,4.738,0,0,0,.741-1.386c.185-.145.373-.289.56-.434.016-.156.032-.315.049-.469.214-.261.516-.343.658-.674a8.556,8.556,0,0,0,.4-.777,3.557,3.557,0,0,1,.667-.947c.043-.4.082-.782.124-1.174l.588-.456.047-.445.686-.9q.052-.481.1-.962c.412-.238.222-.712.626-.952q.059-.348.118-.7l.911-1.347c.134-.078.268-.153.4-.234.008-.13-.015-.348.058-.45a3.6,3.6,0,0,1,.626-.823,3.983,3.983,0,0,0,.71-.918c.235-.33.481-.676.71-1.014.023-.194.043-.389.065-.583.22-.307.442-.614.661-.92a2.882,2.882,0,0,1,.236-1.008c.062-.108.185-.286.254-.407-.1-.122-.2-.239-.3-.359a1.458,1.458,0,0,0,.568-.481q-.016-.6.015-1.19a1.5,1.5,0,0,0,.106-.363c.346.052.628-.016.989.065a1.637,1.637,0,0,1,.91.7c.215.316.571.387.864.587s.645.251.922.451.539.425.838.615a1.616,1.616,0,0,1,.507.564,6.114,6.114,0,0,1,2.363,1.61c.374-.023.509.339.877.323.22.356.633.207.949.412a5.053,5.053,0,0,0,.773.441l.735.037.282.275.851.042.288.288,1.058.052c.3.181.607.364.912.545l.763.038.6-.258.354.326,3.861.193a.918.918,0,0,0,.264-.062c.082-.044.152-.121.231-.171l.267.267,1.725.086.374-.253,1.421.07.306-.232,2.345.116c.365-.336.847-.113,1.195-.463l.858.042c.275-.25.561-.24.9-.405s.717-.019,1.067-.291c.078-.061.389-.01.5.018.235-.174.456-.343.687-.516.357.138.677-.108,1.007-.191.475-.119.6-.429.9-.763h.288c.35-.267.693-.543,1.058-.79a8.151,8.151,0,0,0,1.237-.692,10.368,10.368,0,0,1,.969-.74c.18.008.363.019.542.026.725-.406,1.14-1.114,1.819-1.585.718-.5,1.427-1.037,2.119-1.581.016-.124,0-.32.077-.415a9.023,9.023,0,0,1,1.2-1.482c.3-.243.417-.582.745-.844a6.642,6.642,0,0,0,.718-.94,7.067,7.067,0,0,1,.919-1.175,4.33,4.33,0,0,0,.823-.952,2.146,2.146,0,0,0,.566-1.065c.023-.1.224-.225.315-.285.18-1.08.354-2.154.532-3.232l.288-.222.273-1.653-.235-.3" transform="translate(-893.424 -565.047)" fill="#171717"/>
    <path id="Path_3637" data-name="Path 3637" d="M1114.269,858.538a2.524,2.524,0,0,1-.738.748c-.463.405-.934.83-1.4,1.222a12.229,12.229,0,0,1-1.455,1.039,15.242,15.242,0,0,0-1.874,1.6.825.825,0,0,0-.117.285,4.4,4.4,0,0,0,.73.852l.619.026a6.246,6.246,0,0,0,2.212-1.4l.37.015.243-.557,1.318.056a8.811,8.811,0,0,0,1.961-1.465c.48.032.673-.388,1.075-.577l.519.022a8.692,8.692,0,0,1,.855-.724,1.882,1.882,0,0,1,.922-.363c.486,0,.808-.274,1.305-.317a3.271,3.271,0,0,0,1.126-.479c.084.088.161.178.241.267.41.014.78.04,1.209.044a1.251,1.251,0,0,0,.313-.188c.262-.124.51-.245.767-.368.177.007.369.017.536.021.162.1.033.116.263.232s.578-.075.84-.214c.172.011.318.014.48.022l.635-.547.6.025.377-.3a2.471,2.471,0,0,0,.865-.149,2.208,2.208,0,0,1,1.389-.4c.161-.138.323-.276.481-.417a4.58,4.58,0,0,1,.805-.378,2.382,2.382,0,0,0,1.2-1.019,3.521,3.521,0,0,1,.492-.482c.241,0,.481-.01.722.009.242-.445.482-.492.725-1.031s-.222-1.448-.014-2.066c-.058-.1-.114-.184-.162-.277-.106-.208-.169-.442-.275-.645-.154-.294-.481-.264-.718-.464-.14-.118-.354-.14-.493-.257a4.663,4.663,0,0,1-.51-.558l-.62-.026-.316-.333-.6-.024-.34-.334-1.118-.045-1.136-.687-2.052-.083-.244-.275-2.818-.114-.353.289-.925-.038-.42.343c-.478-.263-.784.151-1.256.235a4.094,4.094,0,0,0-1.422.577l-.8-.033-.288.253c-.211-.009-.42-.016-.631-.027-.447.52-1.114.661-1.608,1.127s-1.016.93-1.542,1.367c-.033.445-.068.886-.1,1.329.28.258.558.51.841.772a1.534,1.534,0,0,0,.012.712c.294.45.337.893.785,1.194-.027.319-.05.638-.078.963-.075.042-.3.207-.3.276-.01.432-.442.514-.423.929-.247.268-.537.437-.692.781" transform="translate(-1000.607 -768.53)" fill="#171717"/>
    <path id="Path_3638" data-name="Path 3638" d="M53.939,3174.8l-.452.9c0,.208,0,.417,0,.624a3.375,3.375,0,0,1-.673,1.086c0,.175,0,.35,0,.523l-.232.289c0,.257,0,.513,0,.771a1.11,1.11,0,0,0-.262.516c-.059.2-.248.313-.379.462-.091.292.079.588-.251.747q0,.581,0,1.162l-.688.62v.55l-.256.41c.072.145.143.288.215.431l-.174.245q0,1.01,0,2.02l-.232.3c0,.164,0,.328,0,.493l-.232.289c0,.083,0,.166,0,.249l-1.122,1.28c0,.083,0,.165,0,.248l-.215.271c.412.648.476,1.42.878,2.075,0,.238,0,.478,0,.717.229.372.446.748.659,1.128a8.483,8.483,0,0,1,.471,1.058.97.97,0,0,0,.5.557.717.717,0,0,1,.415.739l.347.039a6.418,6.418,0,0,0,2.1,1.536,5.265,5.265,0,0,1,.649.359c.212.183.371.128.618.171.084.085.17.175.255.262h.882c.064.074.128.146.192.22h1.623l.192-.214h1.1l.271-.265h.423l.254-.266h.665c.083-.089.167-.177.25-.265.149,0,.294,0,.445,0,.158-.283.436-.19.677-.294.276-.119.472-.357.734-.453.3-.11.383-.343.606-.533.31.059.378-.324.688-.272.212-.206.307-.422.607-.52s.361-.486.714-.5c.191-.208.377-.412.563-.623s.373-.424.558-.637l.214-.029c.274-.452.4-.9.957-1.061.057-.016.107-.113.158-.174a6.716,6.716,0,0,1,.645-.716c.2-.175.457-.23.618-.463s.441-.225.63-.455c.5-.612,1.061-1.207,1.573-1.839.136-.167.137-.455.329-.607.164-.13.169-.344.246-.525a3.8,3.8,0,0,1,.4-.711,2.168,2.168,0,0,1,.336-.349q.2-.506.4-1.013,1.36-1.554,2.719-3.109a1.123,1.123,0,0,0,.343-.15,2.942,2.942,0,0,1,.947-.817c.064-.027.13-.114.179-.107.3.047.444-.2.7-.249s.427-.044.579-.276c.318.061.371-.317.7-.263.288.047.383-.313.694-.254.166.032.252-.1.376-.2.082-.067.215-.019.313-.059a4.877,4.877,0,0,0,.5-.238h.538l.26-.265h.657l.251-.265H84.7l.162-.185a.625.625,0,0,1,.2-.064c.855-.005,1.71,0,2.565,0l.2.231h.859l.277.25a1.505,1.505,0,0,1,.717.112c.21.131.4.151.57.336.2.216.472.037.7.27a2.259,2.259,0,0,0,.645.352c.116.054.232.149.343.215.054-.059.106-.121.161-.181.051-.016.16-.062.2-.03a5.944,5.944,0,0,0,.835.505,1.455,1.455,0,0,0,.818.292c.166.014.42.255.572.391.268.3.935,1.072,1.109,1.264s.088.092.124.1a3.478,3.478,0,0,0,.568.017c.211.122.428.25.641.376l.731.833.8.4c.576.655,1.155,1.308,1.72,1.973a3.523,3.523,0,0,1,.669.971,5.175,5.175,0,0,0,.762.932c.116.147.094.379.242.529a2.322,2.322,0,0,1,.308.412c.114.013.227.023.341.035.047.146.092.292.139.438l.3.1c.349.4.681.782,1.04,1.185.236.266.4.546.785.652.09.025.171.16.236.262a1.782,1.782,0,0,0,.847.706l1.515,1.733a2.52,2.52,0,0,1,1,.639c.157.167.293.153.475.256.025.12.055.242.082.362.223.115.441.23.663.348a3.237,3.237,0,0,1,.641.389,1.42,1.42,0,0,0,.634.441,2.262,2.262,0,0,0,.878.691c.31.19.613.351.938.522a2.519,2.519,0,0,0,1.272.526c.193.255.514.27.714.515h.561a1.146,1.146,0,0,0,.466.237c.265.01.359.2.595.258s.437.015.587.251c.291-.028.4.322.682.278s.339.2.589.271a1.218,1.218,0,0,1,.381.257h1.093c.224.349.622.143.858.481h1.331l.274.265h.421l.256.265h.662l.243.258q3.492,0,6.984,0c.04-.05.121-.144.157-.18s.061-.066.09-.066c.748-.006,1.484,0,2.228,0l.219-.251h2.254l.239-.272h1.127l.209-.239h2.687c.085-.089.17-.177.255-.266h1.564l.252-.265h.432l.259-.265h1.79l.192-.219h1.047a2.04,2.04,0,0,1,1.213-.54l.245-.256h.45l.192-.241c.313-.049.628,0,.943-.03l.188-.213h.626l.308-.266h.7l.314-.531h.541c.083-.087.168-.178.251-.264.245-.032.415.015.618-.175a1.046,1.046,0,0,1,.652-.316c.261-.018.44-.306.689-.272.308.041.426-.293.7-.263s.37-.244.573-.244c.316,0,.446-.2.7-.27s.3-.327.584-.28c.141-.234.346-.211.581-.259a1.281,1.281,0,0,0,.474-.244,3.276,3.276,0,0,0,.3-.24h.673l.317-.531h.791l.233-.245c.2-.049.364,0,.551-.11.39-.233.8-.474,1.207-.7.38-.207.753-.431,1.112-.673a1.555,1.555,0,0,1,.538-.116c.134-.155.269-.308.4-.461h.49l.338-.531h.526l.469-.508c.2-.044.373.006.554-.115.255-.169.571-.318.826-.485s.459-.386.7-.547c.159-.1.362-.1.472-.25s.252-.13.385-.194a1.96,1.96,0,0,0,.612-.458c.2-.223.432-.264.649-.435a6.4,6.4,0,0,0,.629-.458c.286-.284.714-.345,1-.648.4,0,.5-.411.813-.554a2.232,2.232,0,0,0,.821-.534.955.955,0,0,1,.257-.226,2.36,2.36,0,0,0,.827-.509c.228-.279.606-.3.785-.633a2.083,2.083,0,0,0,.783-.638c.344-.044.452-.337.715-.523.126-.088.262-.073.384-.2.218-.228.351-.482.684-.6.281-.1.36-.5.712-.5.327-.393.8-.582,1.1-1,.2-.271.505-.278.718-.543.19-.237.335-.539.693-.544.27-.31.518-.608.8-.908a1.069,1.069,0,0,1,.347-.157c.381-.33.609-.7,1.031-1.008.389-.283.677-.786,1.065-1.088a8.225,8.225,0,0,0,1.249-1.206c.051-.061.1-.164.158-.173.382-.069.506-.411.81-.583.1-.055.216-.08.274-.157.177-.237.41-.292.626-.465a11.012,11.012,0,0,1,.976-1.058,4.226,4.226,0,0,0,.921-.846c.265-.32.628-.381.886-.723.2-.269.371-.611.769-.64a7.808,7.808,0,0,0,.779-.915c.2-.275.525-.3.713-.541s.417-.268.632-.458c0-.082,0-.169,0-.25.2-.181.451-.233.632-.454.325-.4.681-.8,1.029-1.185.479-.153.663-.591,1.028-.9a2.631,2.631,0,0,0,.767-.651c.239-.3.556-.326.8-.634s.489-.6.793-.922c.205-.22.483-.55.709-.811s.479-.547.716-.817l.718-.821.789-.9c.239-.271.513-.575.711-.815.264-.319.471-.548.73-.82.237-.249.24-.578.472-.818a7.675,7.675,0,0,0,.562-.632l.22-.019a2.339,2.339,0,0,1,.482-.787c.194-.2.378-.4.556-.609,0-.093,0-.187,0-.282.19-.182.264-.406.564-.361a3.981,3.981,0,0,1,.942-1.6c.252-.233.263-.55.474-.818s.474-.4.51-.793c.008-.091.135-.2.211-.277a1.85,1.85,0,0,0,.308-.37c.148-.267.216-.581.38-.845s.425-.489.572-.762.339-.542.468-.8a7.085,7.085,0,0,0,.471-.8,7.455,7.455,0,0,0,.313-.78c.046-.205.3-.363.4-.565a2.322,2.322,0,0,0,.174-.426,12.781,12.781,0,0,1,.729-1.976c.108-.24.293-.375.243-.658a.662.662,0,0,0,.238-.532c.259-.2.154-.518.252-.776s.32-.465.362-.717c.055-.325.3-.462.272-.79.227-.206.236-.458.378-.734s.041-.636.3-.876a1.786,1.786,0,0,1,.287-1.018,3.631,3.631,0,0,0,.374-.975c.037-.356.222-.57.268-.933a5.336,5.336,0,0,0,.215-.907c.291-.238.117-.595.323-.875a.622.622,0,0,0,.11-.46c-.023-.2.144-.27.19-.426a1.862,1.862,0,0,0,.043-.525c.07-.089.143-.181.215-.27,0-.167,0-.333,0-.5l.232-.289q0-.9,0-1.791c.148-.137.222-.327.429-.385.061.024.146.034.19.082.249.269.482.542.722.817-.078.4.2.661.238,1.045a4.251,4.251,0,0,1,.45.947,1.613,1.613,0,0,1,.23.8c0,.1.141.227.2.307,0,.248,0,.492,0,.738l.232.289q0,.251,0,.5l.232.288q0,.766,0,1.532l.192.22q0,1.833,0,3.667l-.181.206.192.279q0,.51,0,1.021l-.192.255.259.4-.283.414q0,.375,0,.749l-.206.235q0,.656,0,1.312a.673.673,0,0,0-.247.57,2.829,2.829,0,0,1-.2.578q0,.412,0,.824c-.166.315-.459.466-.465.849-.241.229-.244.564-.45.818.043.3-.142.525-.2.8a3.9,3.9,0,0,0-.026.957c-.069.082-.142.163-.212.244q0,.425,0,.849l-.707.638c.009.372-.337.619-.23.978l-.648.735c0,.32,0,.642,0,.962a4.611,4.611,0,0,0-.615.7c-.163.258-.191.6-.348.85-.115.182-.106.389-.233.538a2.2,2.2,0,0,0-.472.815,5.82,5.82,0,0,0-1.024,1.707,3.606,3.606,0,0,1-.163.44,1.508,1.508,0,0,0-.146.426l-.266.033-.785.976c0,.139,0,.276,0,.415l-.464.557c0,.18,0,.358,0,.538l-.347.125a2.463,2.463,0,0,0-.68,1.012,1.762,1.762,0,0,1-.168.433,6.165,6.165,0,0,1-.467.552c-.1.03-.1-.019-.222.032s-.1.28-.176.4a5.26,5.26,0,0,1-.486.583c-.109.024-.215.051-.322.079a1.571,1.571,0,0,1-.062.329c-.148.343-.566.363-.751.654-.158.247-.2.665-.492.753-.368.11-.454.368-.7.592a.974.974,0,0,0-.317.493c-.093.35-.353.489-.569.751-.329,0-.419.261-.618.469a1.722,1.722,0,0,0-.425.7,1.858,1.858,0,0,1-.463.625l-.326.024a1.346,1.346,0,0,1-.075.335c-.158.3-.447.438-.45.813a3.59,3.59,0,0,1-.657.363.755.755,0,0,0-.35.281c-.216.3-.207.618-.61.8a2.219,2.219,0,0,0-.653.641,3.127,3.127,0,0,1-.722.787,2.057,2.057,0,0,0-.945,1.1.417.417,0,0,1-.455.277,4.954,4.954,0,0,0-1.048,1.449c-.015.043-.116.074-.182.094a.6.6,0,0,0-.445.479.675.675,0,0,1-.509.561.493.493,0,0,0-.255.215c-.212.3-.573.337-.792.636a2.046,2.046,0,0,1-.658.655c-.217.106-.379.438-.592.5-.346.095-.445.4-.716.542a2.985,2.985,0,0,0-.836.494c-.258.256-.421.535-.789.632a2.951,2.951,0,0,1-1.169.784c0,.085,0,.169,0,.254q-.534.6-1.068,1.2a1.552,1.552,0,0,0-.939.675c-.1.191-.08.335-.338.372-.088.013-.179.144-.243.237-.146.209-.152.56-.4.691a2.183,2.183,0,0,0-.63.46c-.128.138-.305.173-.454.292a2.074,2.074,0,0,0-.393.449,2.409,2.409,0,0,1-.8.614,5.237,5.237,0,0,0-.537.381,5.734,5.734,0,0,1-1.414,1.377.434.434,0,0,0-.213.272c-.064.575-.491.5-.816.875a2.68,2.68,0,0,0-1.173.819c-.261.289-.635.377-.833.726-.123,0-.242,0-.364,0a.694.694,0,0,0-.183.112,4.4,4.4,0,0,1-.86.755,4,4,0,0,0-.8.877.222.222,0,0,1-.1.058,4.729,4.729,0,0,0-1.732,1.5c-.1.036-.309.078-.343.177a1.24,1.24,0,0,1-.182.437c-.214.249-.522.263-.716.545a1.129,1.129,0,0,1-.611.476c-.274.083-.466.345-.732.445a.638.638,0,0,0-.417.355,2.127,2.127,0,0,1-.417.709c-.385.423-.743.846-1.119,1.273-.407-.008-.448.449-.825.519a5.077,5.077,0,0,1-.755.733c-.145.107-.336.136-.444.3-.154,0-.306,0-.459,0l-.394.454a2.176,2.176,0,0,0-1.154.542,2.613,2.613,0,0,1-1.037.538c-.171.048-.216.215-.359.26-.474.152-.767.529-1.281.524a2,2,0,0,1-1.165.514c-.27.3-.681.274-.811.7-.285.084-.522.156-.724-.106l-.644.735c-.285-.08-.361.058-.569.217a3.337,3.337,0,0,0-.335,0c-.042,0-.082,0-.1.024-.21.228-.4.455-.606.686-.982.478-1.886,1.084-2.9,1.51l-.234.354H155.1c-.149.088-.294.167-.441.261-.12.077-.24.171-.357.255h-.564l-.815.5h-.577l-.269.265h-.651l-.252.265h-.666l-.248.265h-2.693c-.068.077-.137.156-.2.234h-3.593l-.239.273h-3.155l-.214.243h-1.327l-.268.266h-1.1l-.251.265h-4.724l-.234-.244-.236.229-.212-.241h-.9l-.239-.273h-.9l-.206-.234c-.371,0-.743,0-1.114,0l-.249-.266h-.442l-.249-.265h-1.565l-.2-.227-.714-.042-.192-.216h-.946l-.324-.532h-.761l-.249-.264h-.445l-.192-.224a3.258,3.258,0,0,1-1.5-.7,2.033,2.033,0,0,0-.606-.129c-.11-.173-.22-.35-.329-.526-.276.077-.354-.066-.551-.223h-.56l-1.288-.76h-.627l-.364-.526h-.421a5.763,5.763,0,0,1-1.093-.662c-.358-.306-.774-.465-1.018-.887H113.1l-.432-.493c-.159-.01-.317-.018-.476-.029a3.084,3.084,0,0,1-.413-.486c-.172-.252-.448-.23-.636-.455-.152-.181-.273-.37-.542-.361-.16-.254-.368-.235-.641-.232a6.078,6.078,0,0,0-.819-.7,4.962,4.962,0,0,0-.918-.588c-.374-.21-.494-.7-.959-.771-.227-.329-.578-.453-.862-.721s-.471-.629-.83-.82-.55-.556-.871-.794h-.441c-.026-.134-.052-.267-.078-.4l-.546-.608h-.2a2.332,2.332,0,0,0-.834-1.06,6.1,6.1,0,0,1-1-.982l-.222.223c-.147-.194-.082-.385-.1-.611a2.55,2.55,0,0,0-1.075-.733l-.135-.442c-.083,0-.17,0-.25,0-.2-.155-.081-.393-.136-.586-.1-.343-.409-.365-.653-.563-.007-.1-.009-.21-.015-.315a2.358,2.358,0,0,1-.6-.677,3.217,3.217,0,0,0-.582-.883c-.215-.24-.4-.47-.619-.706-.006-.106-.015-.21-.022-.315l-.323-.1a9.044,9.044,0,0,0-1.269-1.377,14.582,14.582,0,0,1-1.321-1.287c0-.1,0-.2,0-.3-.128-.048-.258-.1-.384-.146-.336-.362-.638-.726-.961-1.1-.3-.349-.771-.481-1-.9h-.5l-.132-.429a2.085,2.085,0,0,1-.751-.392c-.289-.282-.655-.09-.872-.453h-.666l-.257-.266H87.87l-.252-.264h-.66l-.235-.242h-1.13l-.21.24H84.032l-.216.245H82.085a3.583,3.583,0,0,0-.673.448,4.523,4.523,0,0,0-.42.762q0,1.116,0,2.232c-.234.282-.318.639-.532.934a5.755,5.755,0,0,0-.5,1.076l-.781.875c0,.173,0,.345,0,.519a2.2,2.2,0,0,0-.157.183c-.152.275-.02.553-.228.81a1.286,1.286,0,0,0-.27.745c-.018.26-.193.441-.236.667-.065.332-.293.438-.46.7,0,.162,0,.328,0,.492-.071.09-.144.18-.212.271a1.71,1.71,0,0,1-.044.521,2.914,2.914,0,0,1-.391.713c-.212.3-.468.552-.7.83-.052.409-.376.555-.556.9a7.916,7.916,0,0,1-1.208,1.631c-.024.108-.049.216-.074.325l-.848.44-.017.3-.831.889c-.13,0-.263,0-.392,0-.19.384-.259.683-.712.828-.251.081-.264.467-.41.675-.3.422-.684.8-1.02,1.194,0,.08-.007.16-.01.238-.184.345-.5.4-.788.643-.1.083-.277.038-.4.035-.459.313-.595.825-.921,1.25a1.924,1.924,0,0,0-.866.3l-1.292,1.477a.944.944,0,0,0-.4.125c-.21.227-.477.192-.639.454-.447,0-.9,0-1.345,0-.053.061-.107.121-.16.183a.622.622,0,0,1-.2.067c-.376.011-.752,0-1.128,0-.3.177-.608.356-.913.535l-.413-.324-.373.3h-1.99a1.668,1.668,0,0,0-.16-.165.371.371,0,0,0-.192-.08c-.26-.017-.518,0-.777,0l-.262.267-.156-.5H55.7l-.3-.264h-.922l-.335-.532h-.527l-.251-.265h-.217c-.137-.157-.277-.313-.413-.473a1.674,1.674,0,0,1-.977-.366c-.323-.227-.681-.289-.816-.707h-.5a1.448,1.448,0,0,0-.734-1c-.4-.175-.394-.476-.61-.8-.077,0-.159,0-.239,0a5.4,5.4,0,0,1-.911-1.1,8.091,8.091,0,0,0-.821-1.154l-.311-.086c-.127-.325-.262-.649-.4-.969a3.148,3.148,0,0,0-.466-.818,1.317,1.317,0,0,1-.323-.72,4.484,4.484,0,0,0-.246-.8c-.081-.312-.307-.417-.447-.681-.03-.22.033-.415-.1-.618-.076-.117-.081-.308-.173-.419a.76.76,0,0,1-.183-.56c.016-.2-.154-.265-.186-.422a.911.911,0,0,0-.259-.525c0-.17,0-.343,0-.514l-.232-.289c0-.168,0-.336,0-.5-.225-.184-.2-.409-.233-.673s-.244-.379-.218-.677a1.056,1.056,0,0,0-.172-.7c-.118-.19-.057-.541-.063-.768-.067-.095-.135-.18-.2-.272q0-.5,0-1c-.238-.237-.226-.586-.465-.824q0-.765,0-1.529l-.2-.232q0-3.992,0-7.984l-.239-.273q0-1.03,0-2.06l-.213-.243v-1.241a3.337,3.337,0,0,1-.24-.562l.2-.251q-.213-.429-.428-.857c0-.222,0-.443,0-.664l-.2-.307v-1.312l-.32-.243-.385-.84c0-.144,0-.289,0-.433l-.2-.231a1.551,1.551,0,0,0-.052-.547,1.376,1.376,0,0,1-.224-.541c-.412-.423-.561-.993-1.034-1.367h-.653l-.354-.531H36.252l-.239-.253H35.56c-.177.261-.374.259-.666.248l-.208.238H32.963l-.835.53h-.819l-.251.265h-.892l-.242.258h-.577l-.824.49-.877.07c-.238.318-.627.116-.848.462h-.9l-.249.265h-.673l-.2.228h-.9l-.231.264-.713.043-.421.48h-.89a13.384,13.384,0,0,1-1.96,1.363l-.321-.3h-.668l-.235.239c-.516,0-1.045,0-1.553,0-.131.089-.025.089-.211.2s-.658.025-.911.092c-.077-.071-.133-.15-.2-.224a1.417,1.417,0,0,0-.514.243c-.186.2-.39.148-.6.236s-.382.188-.589.26a3.728,3.728,0,0,0-.857.45l-.22-.228H11.3l-.639-.374v-.259l-.636-.418q-.033-.32-.066-.64a2.447,2.447,0,0,0-.89-.595H8.316l-.239-.273H7.4l-.214-.245H5.412l-.272-.266H4.322c-.251-.134-.444-.293-.69-.448s-.484.005-.706-.265c-.146-.177-.422.016-.591-.191-.2-.241-.486-.033-.7-.272s-.488-.013-.729-.161a2.08,2.08,0,0,1-.744-1,.738.738,0,0,1,.044-.787c.107-.185.045-.4.233-.541a2.4,2.4,0,0,0,.311-.269q0-.426,0-.852l.192-.219q0-.877,0-1.754l.232-.335c0-.386,0-.77,0-1.155.146-.338.322-.688.464-1.021a5.871,5.871,0,0,1,.545-1.041c.2-.292.244-.656.577-.833,0-.18,0-.359,0-.539.28-.445.679-.788.934-1.25a6.789,6.789,0,0,1,.97-1.216c.341-.4.689-.791,1.035-1.185v-.258c.25-.266.436-.532.812-.608l1.821-2.1.208-.026a9.829,9.829,0,0,0,.708-.825c.218-.286.539-.387.789-.637s.414-.552.787-.632a3,3,0,0,1,.78-.637c.275-.208.52-.42.785-.64a3.479,3.479,0,0,1,.888-.517c.231-.24.461-.48.691-.721.395-.027.431-.493.827-.515l.73-.77c.344-.01.448-.411.812-.257a.789.789,0,0,0,.176-.13,5.689,5.689,0,0,1,1.366-.9c.129-.08.256-.183.385-.267H18.9l.424-.48h.609l.819-.53c.126,0,.261,0,.381,0,.11-.079.047-.11.2-.2a2.228,2.228,0,0,1,.722-.075c.074-.078.134-.151.2-.228h.894l.214-.244.507-.063c.07-.081.139-.159.209-.24h2.254l.208-.236h3.612l.235.245H31.5l.25.265h.439l.164.188a1.878,1.878,0,0,0,.7.069c.1.084.194.168.295.252a.945.945,0,0,1,.56.02c.266.169.547.151.791.316s.489.166.642.435H35.8l.153.185a2.822,2.822,0,0,0,.793.1c.166.376.518.493.836.694a7.133,7.133,0,0,0,1.034.576.539.539,0,0,1,.19.1c.167.173.326.363.48.54.048.054.117.125.172.129.368.035.4.412.719.533a2.37,2.37,0,0,1,.474.245c.03.019.074,0,.107,0q1.12,1.278,2.239,2.558c.209,0,.3.141.471.247.12.076.266.079.377.194.151.155.342.057.533.1.141.161.28.321.421.481.16.009.32.02.481.03a1.749,1.749,0,0,0,.428.457c.181.1.333.127.454.3.15,0,.3,0,.45,0,.076.083.152.167.229.25.265.014.528.017.793.008a6.533,6.533,0,0,1,1.709,1.555c.153,0,.3,0,.457,0a2.158,2.158,0,0,0,.954.743.748.748,0,0,1,.417.35c.119.338.362.518.475.814a2.136,2.136,0,0,0,.51.8c.2.25.426.485.631.731a.185.185,0,0,1,.031.113c.008.218,0,.444,0,.664.071.1.144.193.216.289q0,.36,0,.72c.127.215.274.32.224.59l.39.15.757.866q0,1.287,0,2.575l.208.237v2.557c.076.1.152.192.228.289l-.224.28q0,.23,0,.459l-.261.425.269.448a3.322,3.322,0,0,0-.216.662.749.749,0,0,1-.231.543q0,.9,0,1.8l-.232.289q0,1.375-.007,2.751" transform="translate(-0.067 -2839.337)" fill="#171717"/>
    <path id="Path_3639" data-name="Path 3639" d="M1254.569,3544.992l.176.009c.345.214.384.608.655.889v.779l-.24.262.245.268q0,.434,0,.867c-.272.638-.763,1.142-.993,1.8h-1.069a7.135,7.135,0,0,1-.874.5,1.8,1.8,0,0,1-.6-.026c-.2-.288-.548-.083-.769-.278s-.433-.181-.656-.344a2.711,2.711,0,0,0-.758-.346c-.042-.012-.206-.071-.267-.085-.49-.488-.971-.969-1.456-1.456.015,0-.041-.015-.074,0-.285.152-.577.317-.864.474l-.246-.217h-.962c-.621-.435-.8-1.088-1.21-1.691,0-.257,0-.513,0-.77l.219-.22q0-1.3,0-2.6l.753-.654h.644l.309.232h2.08l.216-.217.278.232h.763l.268-.248h.778c.057.06.095.135.172.173.3.145.609.273.915.408l1.145,1.145c.6.209.926.729,1.424,1.1" transform="translate(-1128.678 -3212.225)" fill="#171717"/>
    <path id="Path_3640" data-name="Path 3640" d="M1103.525,3592.072q0,.738,0,1.477l-.253.27c0,.428,0,.855,0,1.283-.045.049-.138.122-.172.171-.161.236,0,.413-.075.647-.061.279-.33.458-.292.75-.323.265-.453.554-.9.662-.162.039-.373.326-.487.469-.348,0-.687,0-1.032,0l-.241.241h-1.23l-1.293-.673a2.471,2.471,0,0,0-.969-.729c0-.1,0-.192,0-.288a3.526,3.526,0,0,0-1.213-.122l-.583-.874c0-.257,0-.516,0-.774l-.245-.245q0-.625,0-1.25l-.244-.3.481-.865q0-.6,0-1.212c.264-.287.309-.671.645-.9h.769l.268.251h.505l.269.251h1.539l.187-.187a.86.86,0,0,1,.229-.06c.514-.01,1.022,0,1.535,0a3.514,3.514,0,0,1,.735.394c.229.17.49.07.739.192q.055.367.109.733l.327-.278.9.953" transform="translate(-992.367 -3255.448)" fill="#171717"/>
    <path id="Path_3641" data-name="Path 3641" d="M859.247,2121.238c.06.062.118.125.178.187a.785.785,0,0,1,.064.228c0,.38-.015.757-.021,1.136l-.2.192a.665.665,0,0,0,.155.807q-.043,1.828-.087,3.656l-.225.214q-.036,1.548-.073,3.1l.23.275c-.006.253-.012.5-.018.758l-.321.385.3.415q-.012.512-.025,1.025l-.241.231q-.015.643-.031,1.287l-.526.5q-.034,1.4-.067,2.807c-.093.1-.184.2-.279.3.016.122.055.377-.021.464-.243.277-.257.6-.535.828-.009.417-.022.853-.029,1.262-.091.148-.1.014-.2.228s.045.647-.2.925c-.214.244-.089.61-.374.895-.135.136.005.477-.208.662-.145.126-.124.375-.275.536a1.868,1.868,0,0,0-.337.609c-.071.2-.215.34-.3.524-.1.219-.172.448-.277.657-.167.33-.483.377-.779.549-.009.339-.017.68-.025,1.02l-.267.276c0,.128,0,.257-.01.385a2.419,2.419,0,0,1-.673,1c-.317.231-.381.623-.654.888-.308.3-.628.581-.93.886l-.257-.006-1.04.991-.755-.019-.567.514c-.258-.057-.365.132-.566.254l-.717-.017-.3.24-1.219-.03-.29.217c-.328.048-.557.05-.771-.231l-1.254-.03c-.194-.136-.292-.327-.553-.281l-.29.25-.377-.01a3,3,0,0,0-1.3.887c-.009.345-.021.684-.03,1.034.26.189.128.562.272.758.233.318.139.535.251.868.114.022.23.053.345.078l.709.746.741.018.3.272c.6.014,1.2.03,1.8.043.24.421.706.506,1.034.838s.641.692.974,1.022c.1,0,.192,0,.288.007a2.394,2.394,0,0,0,1.057.784,3.257,3.257,0,0,1,1.174.816l.449.01,1.708.928q.03.161.059.322l.4.14a3.06,3.06,0,0,0,.288-.385,5.78,5.78,0,0,1,.4-.861,11.4,11.4,0,0,1,.9-.881c.124-.108.291-.3.307-.31a7.134,7.134,0,0,1,1.4-.6,5.781,5.781,0,0,1,1.167-.321c.093,0,.219-.145.291-.212.2.112.386.229.58.343q.2-.148.4-.295c.157,0,.328.007.476.012.179-.086.068-.142.315-.235s.629.157.912.272a.418.418,0,0,1,.195.135c.193.292.54.357.787.572.395.344.717.744,1.08,1.109.325.327.79.412,1.031.823.262,0,.523.013.785.018l.327-.271c.565.158.985-.22,1.542-.239.288-.3.6-.178.97-.192l.289-.241.494.011.289-.258.957.023.946-.509.7.016.25-.239,1.032.023.247-.235.75.018.305-.258.744.018.265-.258.724.019.272-.258c.4.01.795.021,1.192.031l.189-.215c.288,0,.576.013.864.018l.287-.253c.28-.061.489.032.656-.256l.873.011.247-.263q.653,0,1.306,0l.243-.265.658,0,.248-.256c.193,0,.386,0,.579,0,.231-.137.475-.256.712-.384.029-1.371.138-2.727.283-4.09-.072-.081-.144-.161-.215-.243.078-.865.224-1.72.319-2.582l-.2-.234c.063-.427.128-.853.191-1.28-.077-.093-.155-.186-.232-.28a40.066,40.066,0,0,0,.5-4.1c-.079-.085-.158-.17-.238-.253q.019-.389.037-.778l.256-.256q.154-3.2.258-6.4l.272-.27q.036-1.151.072-2.3l-.286-.333.3-.569q.054-1.728.108-3.455l.281-.259q.025-.771.049-1.541l.249-.229q.027-.886.055-1.772l.274-.287q.012-.374.024-.749l.274-.271c.017-.512.031-1.022.049-1.536.052-.043.149-.129.188-.168s.073-.064.075-.1c.025-.427.03-.838.046-1.26l.236-.217c.03-.945.059-1.907.089-2.84-.07-.2-.118-.038-.194-.32s.11-.921-.216-1.223c.04-.452-.211-.75-.329-1.158-.128-.038-.256-.079-.384-.119-.016-.108-.033-.217-.049-.325l.4-.369,1.29.062c.087.086.173.174.26.26a1.5,1.5,0,0,1,.7.194c.278.171.548.3.843.454s.458.468.8.565a.447.447,0,0,1,.249.265c.047.484.509.619.549,1.088l.745.859c-.005.287-.06.511.188.707.015.264.22.407.27.665s0,.5.244.681c-.018.511-.032,1.019-.048,1.53l.257.3c0,.139-.008.278-.013.416-.092.162-.178.321-.273.483-.073.125-.158.254-.236.377l.261.341-.334.508q-.019.6-.037,1.2l-.243.224q-.016.506-.031,1.012l-.274.273c-.007.253-.016.507-.024.76l-.274.271c-.013.423-.026.847-.04,1.271l-.227.208q-.041,1.315-.082,2.629l.2.214q-.016.49-.031.981c-.1.165-.2.329-.292.493q.143.175.286.349-.027.888-.055,1.774l.256.295c-.008.254-.016.507-.024.761l-.257.255c0,.172-.01.344-.016.516l.228.247c-.029.94-.076,1.878-.129,2.817l.233.259q-.079,1.385-.158,2.77l.245.331c-.01.167-.018.334-.029.5l-.268.254c-.12.916-.231,1.836-.367,2.749.23.24.188.539.371.823.061.094-.024.326-.058.437-.116.114-.233.222-.35.333l.219.534c-.13.878-.249,1.758-.364,2.639l.209.237q-.072.626-.143,1.251c-.089.086-.176.172-.263.259-.007.08-.014.161-.021.24l.232.27c-.021.25-.048.5-.065.75q.32.321.643.64,4.919.094,9.831.323l.182.186a1.221,1.221,0,0,0,.256.089q1.573.077,3.148.13l.239-.218c.636.022,1.272.036,1.908.051l.2.209,2.616.065c.264.266.506.528.763.806a1.315,1.315,0,0,0,.506.3c.29.121.352.439.437.717.141.01.282.017.423.025l1.155,1.218-.189.206q-.019.763-.037,1.526l-.25.269c.074.088.148.178.223.264.085.453-.176.647-.335,1.064-.065.17-.281.271-.47.366a3.522,3.522,0,0,0-.749.58c0,.151-.008.295-.011.445-.138.235-.239.5-.394.727-.272.392-.711.507-1.082.778-.3,0-.394.212-.587.4-.008.087-.013.162-.023.257-.349.288-.755.819-1.09,1.051s-.562-.069-.789.3c-.364-.019-.733-.02-1.1-.032l-.211-.222c-.517-.014-1.033-.025-1.55-.042l-.555-.543c-.141,0-.283-.009-.424-.017q-.51.219-1.02.437l-3.872-.216c-.089-.088-.178-.174-.267-.26-.471-.027-.943-.051-1.414-.076l-.258-.248c-1.2-.062-2.41-.122-3.616-.169l-.275.237c-.255.042-.361-.135-.545-.276a2.115,2.115,0,0,0-1.151.336c.065.285-.14.4-.259.607-.159.281-.187.562-.421.789a4.7,4.7,0,0,0-.533.616c.066.389.147.775.225,1.161q-.222.743-.446,1.484c.061.3.121.325.181.627-.069.092-.14.183-.209.273q.127.636.261,1.271l-.18.239.21,1c-.066.1-.131.194-.195.292.062.251.123.408.184.658-.061.092-.122-.1-.182,0,.075.309.153.616.216.928.151.232.292.471.433.708l.771-.023.307.254,1.313-.039.3.248c.46-.095.78.265,1.237.216a2.018,2.018,0,0,0,1.352.215l.956.48c.145,0,.29-.011.435-.012.348.189.388.61.655.86s.53.437.791.68c0,.262,0,.529,0,.792l.26.376c-.038.351-.44.51-.227.866-.369.576-.99.8-1.433,1.3l-.51.015-.281.272-1.274.039-.217.226-1.346.041-.225-.216-1.286.039-.276-.263q-.514.014-1.029.031l-.238-.227-.518.016c-.1.1-.207.2-.311.3l-.474-.25c-.51.367-1.109.5-1.491,1.031l-1.834.056c-.088-.078-.176-.157-.264-.235l-.281.268-1.272.039c-.023.03-.074.075-.1.1-.043.046-.137.147-.185.146-.452-.015-.739.319-1.181.3l-1.033,1.067a3.058,3.058,0,0,0-1.452.526l-.866.026-.316.274-.762.024-.27-.23c-.318.008-.637.02-.955.028-.155-.076-.314-.168-.465-.246a3.392,3.392,0,0,1-.938-.526,3.018,3.018,0,0,0-1.38-.773c.008-.3,0-.574-.007-.879s.093-.584-.137-.831-.018-.551-.276-.785c-.214-.194-.005-.464-.194-.678s-.2-.524-.434-.707c-.011-.363-.3-.5-.523-.749q0-.5-.006-1.008l-.229-.22c.1-.207.282-.289.222-.547.258-.23.559-.582.808-.782s.444-.252.682-.424c.319,0,.641-.018.961-.027a.7.7,0,0,1,.674-.27c.058.034.154.078.2.111.371.246.457.636.745.956s.643.617.951.926l.763-.025.241.233.769-.025.262-.244,1.533-.049c.112-.135.216-.277.324-.416,0-.274.053-.429-.162-.654a.5.5,0,0,1-.076-.66l0-.007c.156-.189.132-.477.293-.653.133-.145.357-.149.479-.285.2-.222.512-.192.643-.472.114-.244.378-.235.554-.382.269-.224.179-.226.433-.457-.086-.515-.2-1.021-.312-1.53l.171-.241c-.072-.343-.14-.686-.207-1.029l.21-.278c-.1-.513-.2-.746-.293-1.26.072-.093.145-.184.217-.276q-.112-.641-.225-1.28c.067-.078.131-.157.2-.235q-.068-.5-.135-1l.218-.283c-.025-.167-.045-.335-.067-.5-.267-.219-.417-.094-.624.132-.567.017-1.134.018-1.7.019-.168-.123-.24-.3-.474-.244q-.129.131-.259.26l-.693-.006-.274.262c-.474-.006-.948-.012-1.422-.025-.08.079-.159.157-.24.234l-1.267-.03-.249.239-1.995-.047-.314.258-1.5-.035c-.37.42-.917.558-1.292.975a1.3,1.3,0,0,0-.585.079,1.838,1.838,0,0,1-.577.24c-.027.121-.057.241-.085.361-.217.143-.466.107-.624.339s-.4.228-.631.347c-.193.1-.33.17-.545.268s-.507.246-.735.356c-.575-.011-1.144-.027-1.717-.039l-.264-.24-.491-.011-.279-.273-1.021-.023-.263-.25-.318.264c-.882-.461-1.767-.915-2.646-1.383a1.641,1.641,0,0,1-.385-.3c-.364-.365-.715-.744-1.073-1.115-.03-.125-.06-.249-.089-.375l-.348-.083-.528-.552c-.118-.411-.37-.72-.337-1.166a1.722,1.722,0,0,1-.672-.186c-.192-.144-.4-.118-.547-.272-.219-.223-.416-.163-.7-.155-.223.252-.047.535-.286.8a3.1,3.1,0,0,0-.378.727c-.114.243-.268.494-.39.738-.088,0-.175,0-.26-.007-.274.307-.556.457-.7.872a.6.6,0,0,1-.575.4c-.1,0-.236.158-.318.224-.42-.008-.835-.019-1.253-.029l-.295.259c-.945-.022-1.881-.047-2.832-.066-.344.357-.86.794-1.164,1.132s-.4.578-.659.9c-.651-.038-1.084.475-1.724.471l-.923.88a1.451,1.451,0,0,0-.9.481c.253.224.491.119.8.146a4.913,4.913,0,0,0,.683-.311c.254-.16.38-.445.727-.425.153-.227.41-.228.631-.345.254-.135.49-.258.75-.371l.715.017.328-.524,1.193.029.289-.252,3.349.08.226.235,1.031.025.509.532.81.019c.084.125.164.25.249.376.428.213.883.47,1.294.691.373.2.692.375,1.067.547a11.069,11.069,0,0,0,1.181.579c.207.089.354.417.547.471.345.1.47.326.688.529a3.71,3.71,0,0,1,.535.569c.126.172.162.34.28.532s.331.309.362.567c-.086.112-.177.223-.265.334l.467.488c-.006.257-.012.513-.017.77a1.053,1.053,0,0,0-.224.359.828.828,0,0,1-.259.414c-.125.132-.282.189-.287.391s-.154.268-.279.4-.247.244-.379.364l-2.823-.067-.289.256-.507-.012-.272-.263-.448-.01-.323-.245-.771-.055-.214-.225-1-.024-.66.311c-.018.024-.045.042-.046.075-.014.335-.018.672-.027,1.008a.719.719,0,0,1,.264.562c.02.241.189.435.207.676a.724.724,0,0,0,.255.547q-.025,1.036-.047,2.072l-.254.262c-.01.43-.018.86-.029,1.29a8,8,0,0,1-.747.691c-.235.2-.239.5-.475.689l-.251.017a5.554,5.554,0,0,1-.563.523c-.245.2-.287.469-.474.709-.161.207-.411.3-.4.6-.235.2-.254.481-.437.725-.143.19-.186.448-.377.612q-.032,1.408-.063,2.812l-.225.214q-.03,1.3-.058,2.6l.226.305q-.029,1.271-.058,2.543c.079.081.157.164.236.246q-.017.761-.034,1.521l.259.3q-.09,3.979-.18,7.958l.255.289c0,.168-.007.337-.012.506l-.3.315q.13.274.259.548-.03,1.333-.06,2.665l.283.379q-.014.627-.028,1.256l.234.246q-.028,1.283-.057,2.566a10.444,10.444,0,0,1-.993,1.495,4.692,4.692,0,0,1-1.716,1.155l-1.118-.027-.386-.511c-.2,0-.4-.008-.6-.014a3.565,3.565,0,0,0-.455-.455,1.573,1.573,0,0,0-.43-.176c0-.178.008-.359.012-.538l-.259-.289c.007-.341.016-.679.023-1.023-.358-.213-.141-.6-.349-.879-.243-.33-.059-.595-.149-.953-.079-.08-.158-.164-.236-.246q.014-.644.029-1.287l-.232-.243q.008-.378.017-.756l-.259-.293q.032-1.416.064-2.831l-.222-.216q.012-.52.023-1.04l-.223-.233c-.008-.016-.04-.071-.028-.086a2.294,2.294,0,0,1,.207-.205q.01-.41.018-.82l-.2-.209q.012-.545.024-1.089l.223-.214-.242-.279c.015-.685.032-1.367.045-2.054-.048-.046-.131-.133-.168-.173s-.078-.074-.078-.107c0-.613.024-1.212.035-1.821l-.451-.171c-.137-.253,0-.381.192-.551-.072-.1-.145-.193-.217-.289q.014-.622.028-1.244l-.259-.309q.014-.632.028-1.264l-.259-.288q.023-1.024.046-2.048l-.241-.279.222-.211c.013-.118.029-.214.037-.338s.008-.273.011-.4c-.094-.15-.188-.3-.282-.447.1-.145.193-.291.289-.437,0-.239.01-.478.016-.718l-.227-.267.25-.26q.02-.9.041-1.791l-.24-.274c0-.169.007-.337.011-.505l.238-.273-.217-.227.233-.273q.02-.882.04-1.764l.272-.289q.026-1.149.052-2.3l.266-.274q.014-.642.029-1.285c-.122-.129-.245-.256-.367-.385l-.521-.012-.237-.528-.271-.007c-.154.147-.306.3-.462.442a.557.557,0,0,1-.231.052c-.389-.073-.549.315-.943.23-.161-.035-.4-.185-.57-.245-.455-.015-.9-.023-1.357-.034-.433-.327-.91-.508-1.372-.808-.12-.078-.364-.029-.511-.024-.056-.161-.107-.321-.16-.481l-.61-.087-.166-.456-.63-.085c-.025-.132-.049-.265-.073-.4l-.352-.125a3.538,3.538,0,0,1-.87-1.635c-.25-.241-.248-.6-.5-.834q.018-.764.034-1.528l-.215-.225q.016-.674.031-1.347l.23-.219q.009-.385.017-.77l.249-.238c.005-.248.011-.5.016-.743l.272-.3c0-.163.007-.325.011-.488l.272-.279q.008-.368.016-.736c.37-.583.712-1.178,1.027-1.794a6.267,6.267,0,0,0,.494-.949,3.807,3.807,0,0,1,.555-.8c.246-.319.287-.742.588-1.035s.4-.715.755-.966c.067-.372.422-.61.336-1.017-.071-.333-.492-.432-.493-.837,0-.085-.14-.217-.232-.277-.15-.1-.365-.186-.51-.294-.123-.092-.228-.3-.358-.345-.212-.065-.348-.229-.526-.277a.78.78,0,0,1-.513-.323,1.886,1.886,0,0,1-.182-.439l-.383-.111c-.026-.128-.052-.258-.079-.384-.146-.167-.357-.062-.544-.121-.147-.046-.254-.213-.4-.24a.618.618,0,0,1-.479-.366c-.188-.4-.366-.791-.545-1.195a1.471,1.471,0,0,1,0-.437,3.381,3.381,0,0,0-.726-.619c-.593-.333-.6-.832-.725-1.443l-.762-.651-.108-.02a3.424,3.424,0,0,1-.693-2c-.388-.156-.674-.264-.708-.723-.25-.24-.249-.6-.5-.833.006-.246.014-.489.018-.737-.067-.072-.227-.218-.224-.31a2.11,2.11,0,0,0-.231-.818,2.812,2.812,0,0,0-.213-.7,1.625,1.625,0,0,1-.039-.761c-.078-.1-.155-.185-.232-.278q.013-.5.026-1.009l-.256-.289c.01-.384.02-.771.03-1.155,0-.042,0-.077,0-.117l-.234-.275.295-.326q-.132-.248-.264-.5.046-1.787.092-3.574l.226-.215q.026-1.018.052-2.037l.273-.289q.012-.5.026-1.007l.273-.28c.006-.253.013-.506.02-.759l.262-.273q.009-.328.016-.655l.8-1.449c0-.22.011-.439.016-.659l.273-.288c0-.166.008-.33.012-.5l.269-.278c0-.128,0-.256.01-.385l1.543-2.836c.172-.169.308-.279.5-.454a2.836,2.836,0,0,0,.347-.628,2.092,2.092,0,0,1,.408-.589c.394-.328.534-.832.936-1.153a1.4,1.4,0,0,1,.567-.79,4.177,4.177,0,0,0,.724-.722,2.118,2.118,0,0,1,.5-.686l.243.006,2.882-2.752c.574-.064.714-.584,1.25-.774.432-.153.626-.656,1.122-.734a7.1,7.1,0,0,0,.721-.7c.209-.238.5-.244.737-.43.27-.212.443-.5.779-.622a2.668,2.668,0,0,0,.685-.528c.243-.242.486-.466.724-.709.1,0,.2,0,.3.007l1.559-1.509.231.006a5.635,5.635,0,0,0,1.735-2.341c0-.171.008-.344.012-.514.1-.15.189-.267.28-.428.138-.245.272-.536.4-.785.444-.482.881-.765,1.327-1.294a11.78,11.78,0,0,1,1.535-1.689c.225-.027.414.039.647,0s.4-.324.673-.241c.09.079.178.164.267.245l1.006.024.278.273,1.153.028a3.791,3.791,0,0,0,1.057.509c.334.062.55.339.893.359a3,3,0,0,0,.983.463,7.667,7.667,0,0,0,.69.751c.275.267.367.643.615.909s.289.587.538.842c-.007.248-.012.5-.019.747l.258.311q-.028,1.147-.054,2.292l.257.289q-.043,1.8-.086,3.6" transform="translate(-748.504 -1913.089)" fill="#171717"/>
    <path id="Path_3642" data-name="Path 3642" d="M1321.374,3010.381l-.326.247-.547-.24-1.107-.023-.339-.232-1.478-.031-.317-.232-.74-.016c-.281.208-.624.28-.924.475a6.086,6.086,0,0,0-.922.572l-.79-.017-.247.2-1.807-.036-.263-.208-1.122-.024q-.3-.337-.606-.676l-.617-.012c-.1-.145-.2-.289-.3-.434l-.615-.013c-.253-.334-.29-.617-.82-.71-.122-.021-.234-.2-.351-.3a2.786,2.786,0,0,0-1.512-.654c-.007-.114-.011-.227-.016-.34l-1.146-1.025c-.087-.374-.312-.675-.367-1.061a2.269,2.269,0,0,0-.449-.792c0-.208.011-.411.017-.617l-.521-.367q.007-.251.014-.5l-.258-.247c.005-.216.013-.43.018-.646-.051-.039-.164-.105-.175-.161a4.477,4.477,0,0,1-.292-1.433c.059-.471-.219-.858-.29-1.322-.009-.055-.121-.123-.173-.16.007-.291.016-.578.023-.867l-.256-.247q.023-.843.047-1.686c.268-.4.541-.8.8-1.207a5.16,5.16,0,0,1,.288-.555,6.021,6.021,0,0,1,.616-.546c.408-.326.81-.66,1.216-.988,0-.071,0-.14.006-.211a5.989,5.989,0,0,0,1.475-.989l.373-.6c0-.191.011-.383.016-.573.289-.188.279-.482.562-.687s.351-.54.655-.751a6.166,6.166,0,0,0,.748-.6c.346-.031.559-.27.919-.224l.857-.361c.225-.23.583-.245.818-.466l1.61.033.417-.469c.448.107.7-.161,1.125-.179a1.52,1.52,0,0,1,.525-.241,2.637,2.637,0,0,0,.532-.216c.2-.148.454-.132.651-.286s.31-.346.622-.3a10.407,10.407,0,0,1,2.2-1.052c.165-.079.34-.141.511-.208l.927.018.284-.212.512.011.215.194.57.059c.155.163.071.324.09.516.164.188.408.125.655.152.1.085.231.138.275.262a1.389,1.389,0,0,0,.736.817,10.611,10.611,0,0,0,1.178.49,2.5,2.5,0,0,1,1.337.682l.424.009.7.328c.006.063.012.126.018.189.35.475.964.649,1.387,1.065.082,0,.181.006.252.006.4.276.471.523.94.807s1.3.457,1.459,1.084c.008.033.043.06.071.085.312.3.653.578.974.875.288.266.268.664.708.808-.007.166-.01.329-.014.494l.473.41c-.005.188-.011.376-.015.564l.759,1.317c0,.19-.01.38-.016.569.086.083.172.165.258.247q-.025.873-.049,1.744l.243.239-.237.194c-.015.513-.029,1.024-.044,1.538l-.257.207q-.02.72-.04,1.44a4.656,4.656,0,0,0-.544.858c-.138.286-.44.384-.57.685s-.488.486-.75.716c-.048.267-.008.484-.29.657.025.26-.188.366-.376.52-.229.187-.2.457-.474.6-.238.122-.2.365-.381.521-.212.179-.439.338-.648.52,0,.123-.011.251-.007.372-.191.224-.175.367-.416.61s-.738.585-1.027.847c-.19.008-.363.007-.547.015a1.622,1.622,0,0,1-.509.382,1.325,1.325,0,0,0-.52.245l-.525-.011-.455.377a3.722,3.722,0,0,0-1.408.451l-1.72-.035-.3.214-.262-.213-1.018-.021m5.936-14.456a4.078,4.078,0,0,1-.723-.772,3.469,3.469,0,0,0-.7-.746c-.249-.258-.527-.471-.793-.72a1.807,1.807,0,0,0-.7-.419c-.288-.1-.331-.371-.438-.594-.08-.011-.167-.024-.246-.033-.117-.013-.227-.023-.343-.034a8.3,8.3,0,0,0-1.539-.895c-.243,0-.486-.009-.729-.014l-.193-.171c-.6-.151-1.061.156-1.654.192l-.777.632c-.118.2-.237.392-.355.589,0,.113-.007.227-.01.34l-.271.236q-.01.323-.018.648l-.271.237c-.008.288-.016.575-.025.865-.053.035-.174.1-.183.154-.078.468-.377.834-.374,1.312a13.684,13.684,0,0,1-.03,1.369c-.081.068-.164.134-.245.2l.225.241q-.018.645-.037,1.291c.086.083.171.168.257.251,0,.125-.006.251-.01.377q.241.381.481.764c-.009.356-.02.711-.03,1.066l-.2.164c-.048.2-.1.394-.148.59l-.305-.007a2.815,2.815,0,0,0-.717.947l.419.339,1.058.022.222-.18c.781,0,1.561.036,2.342.027l.248-.2,2.049.042.289-.219.753.016.3-.22.631.013.7-.256c.426-.347.851-.691,1.279-1.04.112-.192.254-.438.368-.614a3.814,3.814,0,0,0,.267-.46c.1-.209.325-.315.281-.56-.036-.207.209-.278.254-.451a2.9,2.9,0,0,0,.033-.583c.077-.082.158-.164.236-.246q.025-.886.05-1.772l-.214-.191c.006-.214.011-.429.018-.645-.172-.162-.344-.323-.516-.486,0-.133.006-.266.011-.4" transform="translate(-1180.504 -2706.669)" fill="#171717"/>
    <path id="Path_3643" data-name="Path 3643" d="M1100.551,2966.939c.2.114.424.259.618.357a4,4,0,0,0,.39.15l.685.719.538.012.639.808.514.012,1.25.673c0,.1,0,.193-.007.289l.282.116.924.97c.157.037.314.076.471.114.274.615.559,1.216.819,1.841a.834.834,0,0,1-.015.355c-.073.072-.144.136-.217.209a1.841,1.841,0,0,1-.114.812c-.155.243-.114.471-.233.688a1.481,1.481,0,0,0-.252.8c-.025.03-.047.066-.076.095q-.417.4-.838.8l-.288.006c-.327.451-.893.53-1.226.979-.24-.006-.481-.011-.722-.018l-1.015.53c-.174-.1-.352-.191-.524-.289-.136-.078-.264-.165-.4-.248l-.192.178c-.3-.086-.408-.4-.726-.163q-.347-.405-.7-.807c-.266-.053-.559.011-.779-.168.082-.1.169-.192.248-.29-.055-.028-.236-.139-.287-.105a.927.927,0,0,1-1.229-.032c-.09-.069-.322-.021-.438-.02-.135-.175-.264-.35-.4-.526l-.627-.014c-.051-.162-.1-.325-.154-.489l-.792-.019c-.2-.213-.135-.4-.157-.662l-.242-.282c.006-.251.012-.5.018-.753l-.252-.288c0-.168.007-.337.012-.5l.271-.289q.014-.609.029-1.218c.123-.178.246-.354.369-.531l-.6-.3q.024-1.006.048-2.013l-.257-.3c.006-.263.012-.525.019-.79-.107-.027-.212-.086-.317-.114-.341-.091-.566.24-.922.207-.1-.111-.207-.226-.31-.337.012-.226.018-.366.261-.424a1.37,1.37,0,0,0,.425-.21c.172.187.287.288.55.2.032-.113.064-.227.1-.338.564-.534,1.133-1.067,1.7-1.6a1.387,1.387,0,0,1,1.006.2,1.353,1.353,0,0,0,.7.079c.407.279.814.374,1.216.694s.795.875,1.2,1.233" transform="translate(-991.553 -2688.567)" fill="#171717"/>
    <path id="Path_3644" data-name="Path 3644" d="M884.765,2990.946c.027.114.053.226.08.339a7.878,7.878,0,0,1,.976,1.2,6.564,6.564,0,0,0,.982,1.175c-.008.055-.023.177.013.215.237.252.263.582.469.852q-.015.638-.029,1.276a1.078,1.078,0,0,0-.287.771l-.734.7q-.045.192-.091.385l-.874.019a2.352,2.352,0,0,1-1.025.984l-.769-.019-.26-.251-.269.237-1.546-.038-.451-.473-.564.274q-.087-.266-.175-.531c-.12-.035-.239-.07-.359-.107a.917.917,0,0,0-.1-.274,3.175,3.175,0,0,0-.476-.576c-.184-.182-.211-.445-.352-.622-.177-.223-.121-.479-.34-.647-.242-.185-.268-.494-.441-.711-.2-.245-.052-.489-.189-.747a.714.714,0,0,1-.312-.075,2.306,2.306,0,0,1-.367-.364c.011-.426.021-.849.03-1.276a1.586,1.586,0,0,1-.171-.192.443.443,0,0,1-.073-.22c-.008-.3.011-.6.014-.893-.061-.065-.121-.128-.183-.192a.814.814,0,0,1-.06-.23c.006-.64.027-1.277.041-1.916.365-.257.156-.693.5-.962q.051-.556.1-1.112a1.635,1.635,0,0,0,.643-.318l.76.019c.09.091.189.2.277.286a6.454,6.454,0,0,0,1.035.584c.323.223.5.55.853.729.238.121.445.4.676.491.309.116.4.437.678.519a1.274,1.274,0,0,1,.691.5c.2.253.484.272.706.476s.4.439.634.638c.08.069.225.053.326.071" transform="translate(-795.165 -2708.441)" fill="#171717"/>
  </g>
</svg>
