<svg xmlns="http://www.w3.org/2000/svg" xmlns:xlink="http://www.w3.org/1999/xlink" width="300" height="36.114" viewBox="0 0 300 36.114">
  <defs>
    <clipPath id="clip-path">
      <rect id="Rectangle_2" data-name="Rectangle 2" width="300" height="36.114" fill="none"/>
    </clipPath>
  </defs>
  <g id="Group_2" data-name="Group 2" transform="translate(0 0)">
    <g id="Group_1" data-name="Group 1" transform="translate(0 0)" clip-path="url(#clip-path)">
      <path id="Path_1" data-name="Path 1" d="M52.132,36.114a3.446,3.446,0,0,0,3.492-3.4V3.4A3.447,3.447,0,0,0,52.132,0H3.492A3.448,3.448,0,0,0,0,3.4V32.714a3.447,3.447,0,0,0,3.492,3.4Z" transform="translate(0 0)" fill="#dc000c"/>
      <path id="Path_2" data-name="Path 2" d="M12.916,17.048a.838.838,0,0,1,.459.473,3.37,3.37,0,0,1,.176,1.306,5.991,5.991,0,0,1-.213,2.137c-.144.251-.476.374-.995.374q-.189,0-.529.013V16.938a4.239,4.239,0,0,1,1.1.111m-.271,16.34a15.838,15.838,0,0,0,4.228-.355,2.52,2.52,0,0,0,1.5-1.324,7.123,7.123,0,0,0,.472-2.979v-1.84a5.059,5.059,0,0,0-.655-2.874A3.948,3.948,0,0,0,15.7,22.676a3.944,3.944,0,0,0,2.209-1.056,3.936,3.936,0,0,0,.56-2.427,6.772,6.772,0,0,0-.793-3.733A3.758,3.758,0,0,0,15.6,13.922a14.37,14.37,0,0,0-3.8-.378H6.515V33.389Zm.629-8.642a2.562,2.562,0,0,1,.277,1.544v1.852a2.362,2.362,0,0,1-.308,1.508,2.311,2.311,0,0,1-1.429.343V24.44a2.554,2.554,0,0,1,1.461.307" transform="translate(-3.179 -6.609)" fill="#fff"/>
      <path id="Path_3" data-name="Path 3" d="M34.317,33.389V13.544h8.837v3.971H39.616v11.9h3.89v3.971Z" transform="translate(-16.745 -6.609)" fill="#fff"/>
      <path id="Path_4" data-name="Path 4" d="M66.044,18.368v.783H61.123v-1.47a2.818,2.818,0,0,0-.189-1.311.7.7,0,0,0-.63-.282.8.8,0,0,0-.722.38,2.154,2.154,0,0,0-.246,1.153,3.18,3.18,0,0,0,.277,1.5,3.987,3.987,0,0,0,1.5,1.214,15.067,15.067,0,0,1,4.456,3.359,7.532,7.532,0,0,1,.919,4.229,7.247,7.247,0,0,1-.51,3.126,3.965,3.965,0,0,1-1.97,1.686,7.979,7.979,0,0,1-3.4.681,7.776,7.776,0,0,1-3.63-.785,3.889,3.889,0,0,1-1.97-2,9.978,9.978,0,0,1-.466-3.443v-1.3h4.922V28.3a3.092,3.092,0,0,0,.208,1.434.809.809,0,0,0,.736.318.871.871,0,0,0,.786-.4,2.258,2.258,0,0,0,.258-1.2,3.644,3.644,0,0,0-.491-2.291,15.668,15.668,0,0,0-2.479-1.8,24.426,24.426,0,0,1-2.619-1.85A4.322,4.322,0,0,1,54.8,20.9a6.837,6.837,0,0,1-.421-2.6,7.046,7.046,0,0,1,.6-3.333,3.983,3.983,0,0,1,1.932-1.649,7.874,7.874,0,0,1,3.221-.594,8.611,8.611,0,0,1,3.518.65,3.65,3.65,0,0,1,1.926,1.636,8.461,8.461,0,0,1,.472,3.353" transform="translate(-26.533 -6.211)" fill="#fff"/>
      <path id="Path_5" data-name="Path 5" d="M79.5,13.544h11.58v3.971H87.933V33.389h-5.3V17.516H79.5Z" transform="translate(-38.792 -6.609)" fill="#fff"/>
      <path id="Path_6" data-name="Path 6" d="M39.978,31.394a.922.922,0,0,1,.239-.626l.08.18.555-1.02.143.4.594-1,.022.378.645-.907.156.389.486-.82.15.6.454-.846.08.427.562-.635.2.535.576-.58.163.52.554-.5.041.4.617-.4.046.291s.631-.251.693-.251l.013.251.517-.185-.139.215.883-.228-.832.541.265-.013a3.359,3.359,0,0,1-.912.359l.345.12a1.362,1.362,0,0,1-.756.24l.4.154-1.019.546.441.216-.975.383.185.321-.944.019.1.434-.776-.153.1.375-.876-.216.044.413-.806-.1.152.27-.732-.1.1.2-.63-.172.088.209-.48-.2.051.221a2.931,2.931,0,0,1-.781-.417l-.089-.061-.818.309-.038-.11Z" transform="translate(-19.083 -13.599)" fill="#fff"/>
      <path id="Path_7" data-name="Path 7" d="M39.978,31.394a.922.922,0,0,1,.239-.626l.08.18.555-1.02.143.4.594-1,.022.378.645-.907.156.389.486-.82.15.6.454-.846.08.427.562-.635.2.535.576-.58.163.52.554-.5.041.4.617-.4.046.291s.631-.251.693-.251l.013.251.517-.185-.139.215.883-.228-.832.541.265-.013a3.359,3.359,0,0,1-.912.359l.345.12a1.362,1.362,0,0,1-.756.24l.4.154-1.019.546.441.216-.975.383.185.321-.944.019.1.434-.776-.153.1.375-.876-.216.044.413-.806-.1.152.27-.732-.1.1.2-.63-.172.088.209-.48-.2.051.221a2.931,2.931,0,0,1-.781-.417l-.089-.061-.818.309-.038-.11Z" transform="translate(-19.083 -13.599)" fill="none" stroke="#dc000c" stroke-miterlimit="1" stroke-width="0.181"/>
      <path id="Path_8" data-name="Path 8" d="M40.782,31.891s5.2-2.86,7.866-3.381" transform="translate(-19.9 -13.912)" fill="none" stroke="#dc000c" stroke-miterlimit="1" stroke-width="0.18"/>
      <line id="Line_1" data-name="Line 1" y1="1.561" x2="0.822" transform="translate(22.425 15.637)" fill="none" stroke="#dc000c" stroke-miterlimit="1" stroke-width="0.18"/>
      <line id="Line_2" data-name="Line 2" y1="1.719" x2="0.904" transform="translate(23.739 14.838)" fill="none" stroke="#dc000c" stroke-miterlimit="1" stroke-width="0.18"/>
      <line id="Line_3" data-name="Line 3" y1="1.6" x2="1.15" transform="translate(24.93 14.317)" fill="none" stroke="#dc000c" stroke-miterlimit="1" stroke-width="0.18"/>
      <line id="Line_4" data-name="Line 4" x2="1.889" y2="0.72" transform="translate(23.739 16.557)" fill="none" stroke="#dc000c" stroke-miterlimit="1" stroke-width="0.18"/>
      <line id="Line_5" data-name="Line 5" x2="1.807" y2="0.281" transform="translate(24.93 15.917)" fill="none" stroke="#dc000c" stroke-miterlimit="1" stroke-width="0.18"/>
      <line id="Line_6" data-name="Line 6" x2="1.561" y2="0.799" transform="translate(22.425 17.198)" fill="none" stroke="#dc000c" stroke-miterlimit="1" stroke-width="0.18"/>
      <path id="Path_9" data-name="Path 9" d="M10.239,57.5c.061,0,.092.019.082.056a.216.216,0,0,1-.088.1.321.321,0,0,0-.127.185L9.033,61.767a1.731,1.731,0,0,0-.059.423c-.208-.011-.392-.015-.557-.015s-.352,0-.529.015c.05-.145.1-.283.136-.423l.172-.631c-.219.124-.429.233-.631.331a.275.275,0,0,1-.165.1c-.037,0-.05-.027-.047-.077a4.371,4.371,0,0,0-.132-.973,5.778,5.778,0,0,0,.893-.289c.139-.056.263-.113.376-.169l.183-.672h-.4a5.831,5.831,0,0,0-.614.041c.067-.206.126-.387.168-.541.048-.176.086-.352.123-.528a3.876,3.876,0,0,0,.592.042h.4l.087-.321c.055-.2.1-.418.156-.646a6.3,6.3,0,0,0,1.055.063m.641,2.144-.354,1.3c-.03.108.033.16.2.16h.036c.041,0,.1-.067.153-.2.042-.1.13-.384.257-.847a3.61,3.61,0,0,0,.87.283,5.277,5.277,0,0,1-.635,1.406.817.817,0,0,1-.6.393H9.818q-.586,0-.477-.4L10.359,58a5.44,5.44,0,0,0,.112-.564,4.869,4.869,0,0,0,.986.067c.077,0,.111.025.1.073a.149.149,0,0,1-.073.078.251.251,0,0,0-.105.144l-.209.763a4.328,4.328,0,0,0,1.059-.5,4.9,4.9,0,0,0,.2.75.424.424,0,0,1,.038.238.075.075,0,0,1-.078.062l-.092-.021a4.649,4.649,0,0,1-1.418.554" transform="translate(-3.523 -28.025)" fill="#fff"/>
      <path id="Path_10" data-name="Path 10" d="M20.07,57.409c.069.01.1.03.094.067a.08.08,0,0,1-.027.04h1.2c.144,0,.295,0,.448-.02a2.239,2.239,0,0,0-.151.4l-.126.463-.13.079h.171c.16,0,.32-.006.487-.017a3.022,3.022,0,0,0-.107.321L21.56,60.1c-.045.165-.082.325-.112.486l-.272-.022a3.808,3.808,0,0,1,.334.965,7.15,7.15,0,0,0-.948.528,3.067,3.067,0,0,0-.122-.554,1,1,0,0,1-.948.574h-1.15c-.349,0-.49-.109-.431-.326l.181-.665-.047.022a6.647,6.647,0,0,1-.753.907,4.551,4.551,0,0,0-.583-.5,5.99,5.99,0,0,0,.814-1.018l-.137.011c.046-.129.087-.244.114-.342s.053-.232.074-.346a3.355,3.355,0,0,0,.4.021h2.735l.032-.119H18.121c-.092,0-.2.006-.323.016.039-.1.074-.2.1-.279a2.242,2.242,0,0,0,.048-.232l-.168.087a3.685,3.685,0,0,0-.232-.846,4.013,4.013,0,0,0,.93-.52,2.846,2.846,0,0,0,.641-.667,3.986,3.986,0,0,0,.957.135m.143,3.5a6.751,6.751,0,0,0,.659-.34c-.138,0-.275.009-.412.022l.044-.1h-.334c.041.109.08.218.112.326-.19.057-.379.125-.559.2a3.346,3.346,0,0,0,.621.216c-.039-.1-.083-.206-.131-.315m-.875.264a2.312,2.312,0,0,0-.129-.491.16.16,0,0,1-.07.068.225.225,0,0,0-.1.138l-.06.224c-.026.092.033.138.183.138h.3a.183.183,0,0,0,.137-.052.407.407,0,0,0,.089-.174c-.117.05-.232.1-.345.148m-.176-.6a2.544,2.544,0,0,0,.265-.083H17.794l-.161.007a3.33,3.33,0,0,0,.5.417c.018-.1.041-.227.062-.36a4.682,4.682,0,0,0,.912.056.15.15,0,0,1,.073.015Zm-.9-1.374h2.617l.032-.119H18.22l-.195.109a1.883,1.883,0,0,0,.24.01m1.877-.748.245-.161H19.353l-.194.161Z" transform="translate(-8.154 -27.947)" fill="#fff"/>
      <path id="Path_11" data-name="Path 11" d="M71.879,62.09a1.254,1.254,0,0,0-.118-.646,2.452,2.452,0,0,0,1.2-.351,1.437,1.437,0,0,0,.726-.851.973.973,0,0,0-.094-.92.919.919,0,0,0-.414-.223,9.364,9.364,0,0,1-1.052,1.8q-.836,1.138-1.391,1.136a.647.647,0,0,1-.674-.547,1.914,1.914,0,0,1,.032-1.029A2.886,2.886,0,0,1,71.307,58.8a3.142,3.142,0,0,1,1.8-.572,1.707,1.707,0,0,1,1.348.511,1.628,1.628,0,0,1,.228,1.58,2.4,2.4,0,0,1-.8,1.2,4.059,4.059,0,0,1-1.172.686,2.668,2.668,0,0,1-.883.218,2.5,2.5,0,0,0,.056-.335m-.916-1.327c-.011.174.011.262.068.262.093,0,.306-.274.644-.832q.358-.6.569-1.027a1.742,1.742,0,0,0-.785.48,1.817,1.817,0,0,0-.453.791,1.573,1.573,0,0,0-.043.326" transform="translate(-34.161 -28.415)" fill="#fff"/>
      <path id="Path_12" data-name="Path 12" d="M82.358,57.457c.061,0,.092.026.077.077a.108.108,0,0,1-.078.079.182.182,0,0,0-.078.061c-.077.148-.153.293-.229.428.156.011.3.016.428.016h.643l.044-.159a5.411,5.411,0,0,0,.123-.605,6.7,6.7,0,0,0,1,.052c.061,0,.088.015.08.046a.2.2,0,0,1-.078.093.307.307,0,0,0-.113.172l-.109.4h.644c.155,0,.31-.006.469-.021-.057.155-.105.31-.147.466L84.5,60.52c-.042.155-.08.31-.107.465-.152-.011-.3-.021-.457-.021s-.328.01-.49.021l.075-.181h-.185l-.264.965c-.028.1-.057.233-.083.383-.186-.015-.355-.022-.5-.022-.17,0-.342.006-.511.022a2.4,2.4,0,0,0,.145-.383l.264-.965h-.181l-.023.16c-.162-.01-.318-.021-.478-.021s-.312.011-.47.021c.053-.155.105-.31.148-.465l.527-1.936c.039-.145.068-.269.094-.384q-.145.249-.3.482l-.831,3.047a2.049,2.049,0,0,0-.069.409c-.172-.016-.335-.021-.479-.021-.124,0-.28.005-.469.021.049-.145.1-.278.131-.409l.439-1.611c-.084.067-.169.128-.249.18a5.892,5.892,0,0,0-.007-1.069,4.32,4.32,0,0,0,.681-.779,6.127,6.127,0,0,0,.639-1.116,5.664,5.664,0,0,0,.867.144m.267,2.479.253-.929h-.2l-.254.929Zm.948,0h.2l.254-.929h-.2Z" transform="translate(-38.967 -27.966)" fill="#fff"/>
      <path id="Path_13" data-name="Path 13" d="M92.985,57.449c.169,0,.356,0,.565-.015a2.734,2.734,0,0,0,.679.853,2.792,2.792,0,0,0,.874.537,11.113,11.113,0,0,0-.759,1.007,4.41,4.41,0,0,1-.437-.284.292.292,0,0,0-.022.062L93.3,61.767a2.49,2.49,0,0,0-.074.423c-.209-.011-.4-.015-.563-.015s-.362,0-.545.015a2.781,2.781,0,0,0,.157-.423l.517-1.9a6.68,6.68,0,0,0,.14-.665,4.112,4.112,0,0,0,.622.061,5,5,0,0,1-.818-.888,12.248,12.248,0,0,1-1.12.857c.156.011.352.011.584.011.077,0,.115.016.108.041s-.066.088-.167.162a6.983,6.983,0,0,1-.739,1.708,3.55,3.55,0,0,1-1.164,1.075,3.35,3.35,0,0,0-.469-.868,1.816,1.816,0,0,0,.854-.708,4.175,4.175,0,0,0,.5-1.1c-.227.132-.452.258-.675.361a3.173,3.173,0,0,0-.231-.985,5.55,5.55,0,0,0,1.223-.673,4.784,4.784,0,0,0,.97-.821c.214.01.408.015.584.015" transform="translate(-43.801 -28.025)" fill="#fff"/>
      <path id="Path_14" data-name="Path 14" d="M68.583,59.372l-.137.556h1.143l.138-.556Z" transform="translate(-33.398 -28.971)" fill="#fff"/>
      <path id="Path_15" data-name="Path 15" d="M69.983,58.313l.141-.571H68.981l-.142.571Z" transform="translate(-33.591 -28.176)" fill="#fff"/>
      <rect id="Rectangle_1" data-name="Rectangle 1" width="1.143" height="4.452" transform="translate(17.053 29.567)" fill="#fff"/>
      <path id="Path_16" data-name="Path 16" d="M27.751,62.194l1.135-4.452H27.744l-1.135,4.452Z" transform="translate(-12.984 -28.175)" fill="#fff"/>
      <path id="Path_17" data-name="Path 17" d="M55.582,57.742,55.3,58.854H53.585l.284-1.112Z" transform="translate(-26.147 -28.175)" fill="#fff"/>
      <path id="Path_18" data-name="Path 18" d="M56.537,57.742H55.394l-.851,3.338H52.29l-.284,1.114h3.4l.285-1.114Z" transform="translate(-25.376 -28.175)" fill="#fff"/>
      <path id="Path_19" data-name="Path 19" d="M40.965,58.3H39.251l.142-.558H38.25l-.142.558H36.393L36.11,59.41l-.141.559h1.143l.141-.559h2.286l-.71,2.783h1.143l.709-2.783Z" transform="translate(-17.551 -28.175)" fill="#fff"/>
      <path id="Path_20" data-name="Path 20" d="M63.9,58.854l.283-1.112H60.753l-.567,2.226h1.142l.284-1.114h1.142l-.567,2.226H59.933l-.283,1.114h3.395l.284-1.114Z" transform="translate(-29.107 -28.175)" fill="#fff"/>
      <path id="Path_21" data-name="Path 21" d="M47.82,58.9l.293-1.162H46.4L46.107,58.9Z" transform="translate(-22.498 -28.175)" fill="#fff"/>
      <path id="Path_22" data-name="Path 22" d="M45.731,60.522l-.258,1.031h1.713l.259-1.031Z" transform="translate(-22.189 -29.532)" fill="#fff"/>
      <path id="Path_23" data-name="Path 23" d="M47.49,60.975l-.43,1.683H44.807l-.284,1.114h3.4l.284-1.114.429-1.683Z" transform="translate(-21.725 -29.753)" fill="#fff"/>
      <path id="Path_24" data-name="Path 24" d="M50.448,59.929H51.59l.143-.556H50.59Z" transform="translate(-24.616 -28.971)" fill="#fff"/>
      <path id="Path_25" data-name="Path 25" d="M51,57.742l-.145.571H52l.144-.571Z" transform="translate(-24.815 -28.175)" fill="#fff"/>
      <path id="Path_26" data-name="Path 26" d="M6.89,5.287,6.8,5.272a.722.722,0,0,0,.013-.125c0-.214-.083-.293-.439-.293L6.2,5.481a.95.95,0,0,0-.048.207c0,.1.058.131.228.14v.079H5.436V5.828c.127-.02.2-.031.256-.224l.394-1.4a1.054,1.054,0,0,0,.032-.174c0-.1-.035-.105-.235-.132V3.82H7.59l-.138.593L7.366,4.4c0-.211,0-.477-.579-.477-.125,0-.16.037-.19.137l-.194.7c.454,0,.493-.069.633-.331l.09.014Z" transform="translate(-2.653 -1.864)" fill="#fff"/>
      <path id="Path_27" data-name="Path 27" d="M10.122,5.168c.083,0,.153.045.153.2,0,.234-.186,1.1-.492,1.1-.166,0-.166-.156-.166-.217,0-.2.16-1.087.5-1.087m.032-.09A1.029,1.029,0,0,0,9.236,6.1a.476.476,0,0,0,.512.466,1.012,1.012,0,0,0,.909-1,.476.476,0,0,0-.5-.481" transform="translate(-4.507 -2.478)" fill="#fff"/>
      <path id="Path_28" data-name="Path 28" d="M12.4,5.167a3.123,3.123,0,0,0,.641-.09l-.18.556.016.006c.1-.185.285-.562.5-.562a.183.183,0,0,1,.186.206.2.2,0,0,1-.188.228c-.113,0-.147-.118-.193-.119-.09,0-.257.313-.327.48-.083.208-.116.358-.218.648h-.388a11.229,11.229,0,0,0,.327-1.187c0-.076-.058-.08-.174-.083Z" transform="translate(-5.978 -2.477)" fill="#fff"/>
      <path id="Path_29" data-name="Path 29" d="M16.134,5.157a2.9,2.9,0,0,0,.477-.079,6.717,6.717,0,0,1,.211.865l.038.225h.006a2.16,2.16,0,0,0,.272-.625c0-.14-.176-.09-.176-.29a.188.188,0,0,1,.18-.175.2.2,0,0,1,.2.194A2.893,2.893,0,0,1,16.9,6.334c-.327.529-.609.828-.926.828a.192.192,0,0,1-.189-.188.17.17,0,0,1,.17-.171.477.477,0,0,1,.164.052.268.268,0,0,0,.131.057.449.449,0,0,0,.291-.372,7.405,7.405,0,0,0-.144-.826c-.108-.475-.141-.475-.266-.475Z" transform="translate(-7.704 -2.478)" fill="#fff"/>
      <path id="Path_30" data-name="Path 30" d="M20.024,5.168c.083,0,.153.045.153.2,0,.234-.185,1.1-.492,1.1-.167,0-.167-.156-.167-.217,0-.2.16-1.087.506-1.087m.032-.09A1.029,1.029,0,0,0,19.137,6.1a.476.476,0,0,0,.512.466,1.013,1.013,0,0,0,.909-1,.476.476,0,0,0-.5-.481" transform="translate(-9.338 -2.478)" fill="#fff"/>
      <path id="Path_31" data-name="Path 31" d="M23.9,6.147c-.061.106-.241.4-.51.4-.048,0-.214,0-.214-.174a.987.987,0,0,1,.07-.336l-.006,0c-.244.332-.378.513-.622.513s-.247-.171-.247-.243c0-.216.241-.785.241-.968,0-.08-.07-.082-.178-.089V5.165c.284-.014.624-.085.669-.088l-.3.963a.641.641,0,0,0-.047.21c0,.06.031.075.074.075.128,0,.324-.3.366-.373a3.786,3.786,0,0,0,.317-.834h.378c-.063.218-.33,1.059-.33,1.159,0,.053.032.059.049.059.076,0,.2-.188.227-.231Z" transform="translate(-10.915 -2.477)" fill="#fff"/>
      <path id="Path_32" data-name="Path 32" d="M25.783,5.167a3.134,3.134,0,0,0,.641-.09l-.18.556.016.006c.1-.185.285-.562.5-.562a.183.183,0,0,1,.186.206.2.2,0,0,1-.188.228c-.113,0-.147-.118-.192-.119-.09,0-.257.313-.327.48-.083.208-.115.358-.217.648H25.63a11.447,11.447,0,0,0,.327-1.187c0-.076-.058-.08-.174-.083Z" transform="translate(-12.506 -2.477)" fill="#fff"/>
      <path id="Path_33" data-name="Path 33" d="M30.731,4.8c0,.267-.208.959-.57.959a.092.092,0,0,1-.1-.1s.192-1.074.525-1.074c.148,0,.148.16.148.212m-.778-.987c.109,0,.2,0,.2.1s-.491,1.667-.491,1.758c0,.062.174.186.445.186A1.13,1.13,0,0,0,31.13,4.77a.358.358,0,0,0-.352-.4.541.541,0,0,0-.435.27l-.006-.007.281-1c-.234.043-.43.068-.666.094Z" transform="translate(-14.474 -1.775)" fill="#fff"/>
      <path id="Path_34" data-name="Path 34" d="M33.781,5.178a.09.09,0,0,1,.093.106.594.594,0,0,1-.5.568c.051-.23.214-.674.412-.674m.129.9c-.08.116-.2.284-.368.284-.064,0-.214-.009-.214-.256a.612.612,0,0,1,.019-.154c.618-.094.823-.423.823-.594a.3.3,0,0,0-.33-.281,1.051,1.051,0,0,0-.928,1,.458.458,0,0,0,.479.481A.729.729,0,0,0,34,6.131Z" transform="translate(-16.06 -2.477)" fill="#fff"/>
      <path id="Path_35" data-name="Path 35" d="M36.593,5.557l-.087-.006c-.026-.157-.093-.373-.282-.373a.159.159,0,0,0-.17.169c0,.2.439.473.439.794a.441.441,0,0,1-.48.42,2.122,2.122,0,0,1-.295-.062.1.1,0,0,0-.093.062H35.54l.07-.52.088.01c.047.416.278.416.306.416a.175.175,0,0,0,.183-.171.627.627,0,0,0-.179-.324.74.74,0,0,1-.257-.506.388.388,0,0,1,.429-.39c.16,0,.2.068.3.068.049,0,.058-.012.091-.065h.093Z" transform="translate(-17.342 -2.477)" fill="#fff"/>
      <path id="Path_36" data-name="Path 36" d="M38.961,4.858h-.266c-.1.381-.279.93-.279,1.036,0,.037.045.047.048.047.081,0,.205-.185.247-.25l.071.045c-.119.18-.275.423-.525.423a.2.2,0,0,1-.232-.207,9.625,9.625,0,0,1,.3-1.093h-.165v-.11a1.135,1.135,0,0,0,.588-.475h.112l-.124.453h.23Z" transform="translate(-18.554 -2.085)" fill="#fff"/>
      <path id="Path_37" data-name="Path 37" d="M42.487,6.137a.775.775,0,0,1-.647.424.458.458,0,0,1-.476-.481,1.057,1.057,0,0,1,.9-1c.253,0,.368.136.368.273a.2.2,0,0,1-.2.226.172.172,0,0,1-.183-.164c0-.088.068-.137.068-.182s-.046-.052-.074-.052c-.279,0-.472.657-.472.881,0,.25.141.3.234.3.144,0,.263-.1.391-.282Z" transform="translate(-20.184 -2.477)" fill="#fff"/>
      <path id="Path_38" data-name="Path 38" d="M45.661,5.421c-.131.2-.275.426-.538.426a.188.188,0,0,1-.208-.191,7.973,7.973,0,0,1,.281-.985.068.068,0,0,0-.073-.072c-.135,0-.3.246-.388.382a3.533,3.533,0,0,0-.323.836h-.388l.494-1.771a.553.553,0,0,0,.025-.132c0-.109-.1-.109-.2-.1V3.731a6.262,6.262,0,0,0,.666-.094l-.34,1.277.007,0c.314-.456.5-.544.664-.544a.222.222,0,0,1,.25.251c0,.123-.291.923-.291.954a.061.061,0,0,0,.055.054c.06,0,.188-.188.239-.259Z" transform="translate(-21.482 -1.775)" fill="#fff"/>
      <path id="Path_39" data-name="Path 39" d="M48.459,5.168c.083,0,.154.045.154.2,0,.234-.186,1.1-.492,1.1-.167,0-.167-.156-.167-.217,0-.2.16-1.087.505-1.087m.032-.09A1.028,1.028,0,0,0,47.574,6.1a.475.475,0,0,0,.511.466,1.012,1.012,0,0,0,.909-1,.476.476,0,0,0-.5-.481" transform="translate(-23.214 -2.478)" fill="#fff"/>
      <path id="Path_40" data-name="Path 40" d="M51.487,5.469c-.163.243-.3.423-.534.423a.2.2,0,0,1-.22-.207c0-.139.249-.922.249-.993,0-.1-.1-.1-.188-.1V4.509a4.8,4.8,0,0,0,.646-.09c-.124.448-.32,1.109-.32,1.209a.048.048,0,0,0,.049.047c.077,0,.185-.157.249-.25Zm-.141-1.74a.218.218,0,0,1,.221.212.216.216,0,0,1-.432-.007.215.215,0,0,1,.211-.206" transform="translate(-24.755 -1.82)" fill="#fff"/>
      <path id="Path_41" data-name="Path 41" d="M53.547,6.137a.775.775,0,0,1-.647.424.457.457,0,0,1-.475-.481,1.055,1.055,0,0,1,.9-1c.253,0,.369.136.369.273a.2.2,0,0,1-.2.226.172.172,0,0,1-.182-.164c0-.088.067-.137.067-.182s-.045-.052-.073-.052c-.279,0-.471.657-.471.881,0,.25.141.3.234.3.144,0,.263-.1.391-.282Z" transform="translate(-25.581 -2.477)" fill="#fff"/>
      <path id="Path_42" data-name="Path 42" d="M56.131,5.178a.09.09,0,0,1,.093.106.6.6,0,0,1-.506.568c.052-.23.214-.674.413-.674m.128.9c-.079.116-.2.284-.368.284-.064,0-.214-.009-.214-.256a.637.637,0,0,1,.018-.154c.618-.094.823-.423.823-.594a.3.3,0,0,0-.331-.281,1.051,1.051,0,0,0-.927,1,.459.459,0,0,0,.479.481.727.727,0,0,0,.612-.431Z" transform="translate(-26.965 -2.477)" fill="#fff"/>
      <path id="Path_43" data-name="Path 43" d="M57.631,7.987c.061-.033.378-.19.378-.367,0-.13-.224-.114-.224-.314a.221.221,0,0,1,.224-.231.273.273,0,0,1,.277.3c0,.416-.565.674-.612.687Z" transform="translate(-28.121 -3.452)" fill="#fff"/>
      <path id="Path_44" data-name="Path 44" d="M60.637,4.547h-.288c-.27,1.252-.411,1.911-.966,1.911-.166,0-.311-.075-.311-.262,0-.1.112-.154.164-.154a.167.167,0,0,1,.16.154c0,.066-.052.112-.052.128s.016.037.052.037c.153,0,.2-.165.295-.591.083-.368.218-.972.282-1.223h-.234l.029-.132H60c.11-.426.324-.779.729-.779.281,0,.313.186.313.248a.159.159,0,0,1-.166.168.155.155,0,0,1-.153-.159c0-.058.05-.105.05-.124,0-.034-.028-.043-.054-.043-.166,0-.259.341-.292.466l-.057.223h.3Z" transform="translate(-28.824 -1.774)" fill="#fff"/>
      <path id="Path_45" data-name="Path 45" d="M63.025,5.168c.083,0,.154.045.154.2,0,.234-.186,1.1-.493,1.1-.166,0-.166-.156-.166-.217,0-.2.16-1.087.5-1.087m.032-.09A1.029,1.029,0,0,0,62.139,6.1a.476.476,0,0,0,.513.466,1.012,1.012,0,0,0,.907-1,.476.476,0,0,0-.5-.481" transform="translate(-30.321 -2.478)" fill="#fff"/>
      <path id="Path_46" data-name="Path 46" d="M65.306,5.167a3.145,3.145,0,0,0,.641-.09l-.179.556.016.006c.1-.185.284-.562.5-.562a.184.184,0,0,1,.186.206.2.2,0,0,1-.19.228c-.112,0-.147-.118-.192-.119-.09,0-.256.313-.327.48-.083.208-.115.358-.217.648h-.388a11.251,11.251,0,0,0,.326-1.187c0-.076-.057-.08-.173-.083Z" transform="translate(-31.791 -2.477)" fill="#fff"/>
      <path id="Path_47" data-name="Path 47" d="M69.035,5.157a2.929,2.929,0,0,0,.478-.079,6.734,6.734,0,0,1,.21.865l.038.225h.007a2.166,2.166,0,0,0,.272-.625c0-.14-.176-.09-.176-.29a.188.188,0,0,1,.179-.175.2.2,0,0,1,.2.194A2.893,2.893,0,0,1,69.8,6.334c-.327.529-.609.828-.926.828a.191.191,0,0,1-.188-.188.17.17,0,0,1,.17-.171.478.478,0,0,1,.163.052.27.27,0,0,0,.131.057.448.448,0,0,0,.292-.372,7.071,7.071,0,0,0-.144-.826c-.108-.475-.14-.475-.265-.475Z" transform="translate(-33.517 -2.478)" fill="#fff"/>
      <path id="Path_48" data-name="Path 48" d="M72.925,5.168c.083,0,.153.045.153.2,0,.234-.185,1.1-.492,1.1-.165,0-.165-.156-.165-.217,0-.2.159-1.087.5-1.087m.031-.09A1.029,1.029,0,0,0,72.039,6.1a.476.476,0,0,0,.512.466,1.013,1.013,0,0,0,.908-1,.477.477,0,0,0-.5-.481" transform="translate(-35.152 -2.478)" fill="#fff"/>
      <path id="Path_49" data-name="Path 49" d="M76.8,6.147c-.061.106-.24.4-.509.4-.049,0-.215,0-.215-.174a.986.986,0,0,1,.071-.336l-.007,0c-.244.332-.379.513-.622.513s-.247-.171-.247-.243c0-.216.24-.785.24-.968,0-.08-.07-.082-.179-.089V5.165c.286-.014.625-.085.67-.088l-.3.963a.629.629,0,0,0-.049.21c0,.06.033.075.074.075.128,0,.324-.3.366-.373a3.76,3.76,0,0,0,.316-.834h.377c-.063.218-.33,1.059-.33,1.159,0,.053.033.059.049.059.077,0,.2-.188.227-.231Z" transform="translate(-36.729 -2.477)" fill="#fff"/>
      <path id="Path_50" data-name="Path 50" d="M78.685,5.167a3.139,3.139,0,0,0,.641-.09l-.179.556.016.006c.1-.185.285-.562.5-.562a.183.183,0,0,1,.186.206.2.2,0,0,1-.189.228c-.112,0-.147-.118-.192-.119-.09,0-.256.313-.326.48-.083.208-.116.358-.218.648h-.388a11.308,11.308,0,0,0,.327-1.187c0-.076-.058-.08-.173-.083Z" transform="translate(-38.32 -2.477)" fill="#fff"/>
      <path id="Path_51" data-name="Path 51" d="M83.632,4.8c0,.267-.208.959-.57.959a.092.092,0,0,1-.1-.1s.192-1.074.525-1.074c.146,0,.146.16.146.212m-.778-.987c.109,0,.2,0,.2.1s-.489,1.667-.489,1.758c0,.062.173.186.445.186A1.131,1.131,0,0,0,84.032,4.77a.358.358,0,0,0-.353-.4.54.54,0,0,0-.435.27l-.006-.007.282-1c-.235.043-.43.068-.667.094Z" transform="translate(-40.288 -1.775)" fill="#fff"/>
      <path id="Path_52" data-name="Path 52" d="M86.683,5.178a.09.09,0,0,1,.093.106.6.6,0,0,1-.506.568c.052-.23.215-.674.413-.674m.128.9c-.08.116-.2.284-.369.284-.063,0-.213-.009-.213-.256a.613.613,0,0,1,.019-.154c.617-.094.823-.423.823-.594a.3.3,0,0,0-.331-.281,1.051,1.051,0,0,0-.927,1,.459.459,0,0,0,.479.481.728.728,0,0,0,.612-.431Z" transform="translate(-41.873 -2.477)" fill="#fff"/>
      <path id="Path_53" data-name="Path 53" d="M89.494,5.557l-.086-.006c-.026-.157-.093-.373-.282-.373a.159.159,0,0,0-.169.169c0,.2.438.473.438.794a.441.441,0,0,1-.481.42A2.152,2.152,0,0,1,88.62,6.5a.1.1,0,0,0-.093.062h-.086l.07-.52.087.01c.049.416.279.416.308.416a.174.174,0,0,0,.182-.171.619.619,0,0,0-.18-.324.737.737,0,0,1-.256-.506.388.388,0,0,1,.429-.39c.16,0,.2.068.3.068.049,0,.058-.012.09-.065h.093Z" transform="translate(-43.155 -2.477)" fill="#fff"/>
      <path id="Path_54" data-name="Path 54" d="M91.862,4.858H91.6c-.1.381-.279.93-.279,1.036,0,.037.045.047.048.047.08,0,.2-.185.246-.25l.071.045c-.119.18-.277.423-.526.423a.2.2,0,0,1-.231-.207,9.657,9.657,0,0,1,.3-1.093h-.165v-.11a1.137,1.137,0,0,0,.588-.475h.112l-.125.453h.23Z" transform="translate(-44.368 -2.085)" fill="#fff"/>
      <path id="Path_55" data-name="Path 55" d="M95.068,5.424c-.141.208-.282.423-.538.423-.218,0-.218-.164-.218-.207,0-.188.455-1.59.455-1.736,0-.1-.106-.1-.2-.091V3.731a6.633,6.633,0,0,0,.67-.094L94.77,5.27a1.938,1.938,0,0,0-.07.313c0,.04.045.046.048.046.077,0,.185-.157.249-.25Z" transform="translate(-46.02 -1.775)" fill="#fff"/>
      <path id="Path_56" data-name="Path 56" d="M96.8,5.469c-.163.243-.3.423-.534.423a.2.2,0,0,1-.222-.207c0-.139.25-.922.25-.993,0-.1-.1-.1-.189-.1V4.509a4.779,4.779,0,0,0,.646-.09c-.124.448-.319,1.109-.319,1.209a.048.048,0,0,0,.048.047c.076,0,.185-.157.249-.25Zm-.141-1.74a.217.217,0,0,1,.22.212.215.215,0,0,1-.43-.007.214.214,0,0,1,.21-.206" transform="translate(-46.868 -1.82)" fill="#fff"/>
      <path id="Path_57" data-name="Path 57" d="M98.278,4.547h-.289c-.269,1.252-.41,1.911-.966,1.911-.166,0-.31-.075-.31-.262,0-.1.112-.154.163-.154a.167.167,0,0,1,.16.154c0,.066-.051.112-.051.128s.016.037.051.037c.154,0,.2-.165.295-.591.083-.368.217-.972.283-1.223h-.235l.03-.132h.233c.11-.426.324-.779.729-.779.282,0,.313.186.313.248a.159.159,0,0,1-.165.168.155.155,0,0,1-.154-.159c0-.058.051-.105.051-.124,0-.034-.028-.043-.055-.043-.166,0-.259.341-.291.466l-.058.223h.295Z" transform="translate(-47.191 -1.774)" fill="#fff"/>
      <path id="Path_58" data-name="Path 58" d="M100.694,5.178a.09.09,0,0,1,.093.106.594.594,0,0,1-.5.568c.051-.23.215-.674.412-.674m.129.9c-.08.116-.2.284-.368.284-.064,0-.214-.009-.214-.256a.569.569,0,0,1,.019-.154c.618-.094.823-.423.823-.594,0-.226-.219-.281-.331-.281a1.051,1.051,0,0,0-.928,1,.459.459,0,0,0,.48.481.73.73,0,0,0,.612-.431Z" transform="translate(-48.71 -2.477)" fill="#fff"/>
      <path id="Path_59" data-name="Path 59" d="M102.993,7.306a.233.233,0,0,1-.237.231.228.228,0,0,1-.238-.231.231.231,0,0,1,.238-.231.234.234,0,0,1,.237.231" transform="translate(-50.025 -3.452)" fill="#fff"/>
      <path id="Path_60" data-name="Path 60" d="M129.1,24.9l1.3-4.665h7.51l1.634-5.858h4.978l-6.844,24.506H132.7l1.041-3.728-7.707,1.785.71-5.116,8.413-1.732L136.6,24.9Zm20.994-4.132a37.884,37.884,0,0,0,6.487-2.4l1.167,4.129a48.16,48.16,0,0,1-9.069,3.332L146.813,32.5c-.248.9-.007,1.328.867,1.328h.636c1.266,0,1.619-1.173,2.433-3.969l4.6.663c-1.526,5.809-2.977,7.971-7.258,7.971h-3.981c-2.587,0-3.555-1.414-2.809-4.079L146.9,14.379h4.973Z" transform="translate(-61.497 -7.016)" fill="#fff"/>
      <path id="Path_61" data-name="Path 61" d="M201.561,14.907h8.864a26.319,26.319,0,0,1-2.8,3.887h7.148l-3.361,12.042H203.54a11.834,11.834,0,0,1,1.138,1.968l-5.066,1.07a8.09,8.09,0,0,0-1.712-3.038H187.288l1-3.6h19l.229-.827h-19l.971-3.46h18.99l.233-.829H189.656l.271-.959-1.116.43-.5-3.945a28.92,28.92,0,0,0,9.171-4.318l5.046.722Zm-5.91,3.887h6.486l1.058-1.1h-5.488ZM182.973,36.247a17.366,17.366,0,0,0,3.588-4.878l4.608.666a23.012,23.012,0,0,1-3.907,6.233Zm23.778-.724c-1.155,2.292-2.844,2.957-6.012,2.957H195.25c-3.523,0-4.631-1.224-3.782-4.266l.819-2.927h4.823l-.754,2.69c-.119.428.084.667.569.667h4.22c1.057,0,1.333-.24,1.646-1.359l3.668,1.012-.711-2,4.868-.8a18.811,18.811,0,0,1,1.55,4.925l-5.036,1.2Z" transform="translate(-89.282 -6.504)" fill="#fff"/>
      <path id="Path_62" data-name="Path 62" d="M252.822,16.165s-3.958,16.889-10.383,16.889l-1.332,5.779s6.426.591,12.75-8.027c0,0,7.87-13.716-1.035-14.641" transform="translate(-117.649 -7.888)" fill="#fff"/>
      <path id="Path_63" data-name="Path 63" d="M287.308,16.679a6.882,6.882,0,0,0-7.521,4.345c-2.33,5.387-3,16.832,7.091,18.067l1.66-5.316s-6.647-.6-1.23-17.1" transform="translate(-135.817 -8.099)" fill="#fff"/>
      <path id="Path_64" data-name="Path 64" d="M328.956,21.406H301.862l-2.729,9.7a6.269,6.269,0,0,0,7.635-4.318h13.984s-1.28,11.155-19.766,9.357l-1.829,5s19.153,3.977,25.7-9.84c0,0,4.1-7.443,4.1-9.895" transform="translate(-145.963 -10.445)" fill="#fff"/>
      <path id="Path_65" data-name="Path 65" d="M324,14.567h6.851l-1.441,4.585-7.534-.1Z" transform="translate(-157.059 -7.108)" fill="#fff"/>
      <path id="Path_66" data-name="Path 66" d="M374.954,16.054H361l-1.456,5.49h8.2s5.1,1.372,7.206-5.49" transform="translate(-175.442 -7.834)" fill="#fff"/>
      <path id="Path_67" data-name="Path 67" d="M434.946,15.609H419.838l-1.575,6.2h8.881s6.141,1.369,7.8-6.2" transform="translate(-204.093 -7.617)" fill="#fff"/>
      <path id="Path_68" data-name="Path 68" d="M371.67,29.857H357.72l-1.459,5.487h8.208s5.1,1.368,7.2-5.487" transform="translate(-173.839 -14.569)" fill="#fff"/>
      <path id="Path_69" data-name="Path 69" d="M383.549,21.406h-6.3s-3.792,18.031-23.932,14.5l-1.838,5.78S378,45.118,383.549,21.406" transform="translate(-171.508 -10.445)" fill="#fff"/>
      <path id="Path_70" data-name="Path 70" d="M442.516,21.406H435.2S431.764,39.042,411.7,36.2l-1.553,5.687s25.831,3.723,32.372-20.478" transform="translate(-200.131 -10.445)" fill="#fff"/>
      <path id="Path_71" data-name="Path 71" d="M401.921,11.44h-4.435l-1.66,4.016s4.769,1.271,6.094-4.016" transform="translate(-193.145 -5.582)" fill="#fff"/>
      <path id="Path_72" data-name="Path 72" d="M412.531,11.44H408.1l-1.663,4.016s4.765,1.271,6.094-4.016" transform="translate(-198.323 -5.582)" fill="#fff"/>
      <path id="Path_73" data-name="Path 73" d="M517.855,11.44h-4.437l-1.659,4.016s4.766,1.271,6.1-4.016" transform="translate(-249.715 -5.582)" fill="#fff"/>
      <path id="Path_74" data-name="Path 74" d="M528.46,11.44h-4.43l-1.66,4.016s4.764,1.271,6.09-4.016" transform="translate(-254.892 -5.582)" fill="#fff"/>
      <path id="Path_75" data-name="Path 75" d="M492.74,18.975s-.01.045-.018.1h-4.108l1.141-2.654H480.3a10.284,10.284,0,0,1-8.651,5.981l-1.663,6.175s8.541-1.434,12.254-6.108h9.454c-1.993,4.942-7.5,13.178-21.82,11.294l-1.549,6.18s25.5,2.837,31.38-20.971Z" transform="translate(-228.521 -8.014)" fill="#fff"/>
      <path id="Path_76" data-name="Path 76" d="M536.434,17.223l.662-2.331h1.2l-.664,2.331h1.247l-.28.994h-1.256l-.284,1c.017.023.058.092.125.2a3.422,3.422,0,0,0,.2.313c.061.1.13.2.2.3a7.32,7.32,0,0,0,.569.6l.2-.7h3.144l.523-1.84h-1.706l-.948,1.2a5.094,5.094,0,0,0-1.008-.378q.823-.99,1.237-1.586a18.373,18.373,0,0,0,.978-1.6L541.7,16l-.676,1.059h1.287l.6-2.115h1.237l-.6,2.115h2.461l-.3,1.033h-2.455l-.526,1.84h3.155l-.28.985h-2.724a7.485,7.485,0,0,0,2.394,2.814,8.293,8.293,0,0,0-1.258.915c-.1-.1-.252-.26-.434-.459s-.315-.352-.393-.441-.179-.215-.3-.379a8.825,8.825,0,0,1-.788-1.227l-1.042,3.655h-1.234l1.059-3.712c-.4.322-.793.635-1.186.928s-.751.547-1.082.766a18.68,18.68,0,0,1-1.8,1,2.112,2.112,0,0,0-.2-.315l-.473-.521c.43-.2.822-.4,1.186-.607s.726-.419,1.081-.642c.336-.222.7-.479,1.1-.778s.817-.639,1.246-1h-2.693l.036-.107c-.305.26-.6.522-.872.784-.039-.048-.237-.334-.6-.855l-1.451,5.094h-1.2l1.375-4.823c-.638.7-1.456,1.54-2.453,2.535a5.645,5.645,0,0,0-.113-1.406,22.5,22.5,0,0,0,2.034-2.072,16.444,16.444,0,0,0,1.326-1.846h-1.887l.29-.994Z" transform="translate(-259.977 -7.267)" fill="#fff"/>
      <path id="Path_77" data-name="Path 77" d="M560.071,20.889l.287-1.021h5.686l-.292,1.021h-2.094l-.835,2.925,1.829-.245c.03,0,.353-.057.96-.151l-.315,1.1-6.793.957.066-1.165c.75-.067,1.716-.178,2.895-.341l.875-3.076Zm9.771-4.746.942-.684q.67.578,1.267,1.141l-1,.721c-.2-.217-.406-.42-.6-.606s-.4-.377-.615-.573m-1.095.947h3.776l-.309,1.065h-3.762c-.18.737-.3,1.329-.378,1.769s-.119.86-.147,1.227a6.061,6.061,0,0,0,.346,2.818c.183.429.4.64.658.64a.335.335,0,0,0,.237-.121,4.715,4.715,0,0,0,.634-1.108,2.463,2.463,0,0,0,.481.368,3.022,3.022,0,0,0,.559.224,6.506,6.506,0,0,1-1.3,1.679,1.2,1.2,0,0,1-.745.251,1.553,1.553,0,0,1-.764-.228,2.09,2.09,0,0,1-.7-.662,3.74,3.74,0,0,1-.5-1.03,6.368,6.368,0,0,1-.25-2.064,13.048,13.048,0,0,1,.156-1.682c.095-.632.23-1.327.411-2.084h-6.779l.309-1.065h6.774l.6-2.128H569.4c-.227.674-.446,1.386-.656,2.128" transform="translate(-272.524 -7.301)" fill="#fff"/>
      <path id="Path_78" data-name="Path 78" d="M536.141,39.761a16.023,16.023,0,0,0,1.382,1.367h-6.206c.579-.352,1.124-.713,1.632-1.072.481-.333,1.227-.881,2.229-1.64a10.523,10.523,0,0,0,.963,1.345m-4.865,4.573-1.923,2.576L527.516,47l.08,1.232,1.329-.165,3.3-.365q1.581-.179,3.786-.477c.132.244.3.619.515,1.12l1.359-.71a13.3,13.3,0,0,0-.812-1.445c-.112-.174-.294-.417-.544-.732s-.473-.585-.667-.811l-1.18.608c.154.218.3.424.438.609s.262.366.374.528c-.805.079-1.464.149-1.981.2s-1,.091-1.48.134-.9.067-1.271.1l.53-.631.925-1.118.625-.733h6.548l.279-.986H528.155l-.284.986Zm2.35-5.987c-.671.5-1.2.881-1.6,1.142-1,.637-1.768,1.093-2.3,1.359q-.605.313-1.733.777a4.172,4.172,0,0,1,.426.948,27.407,27.407,0,0,0,2.536-1.237l-.232.812h6.651l.266-.937c.419.305.772.549,1.058.716.249.154.614.35,1.1.587a4.1,4.1,0,0,1,.5-.542c.123-.1.348-.265.67-.48-.6-.269-1.121-.523-1.563-.776a10.577,10.577,0,0,1-1.213-.8,10.792,10.792,0,0,1-2.006-2.2l.307-.237-1.305-.414c-.637.544-1.153.97-1.56,1.28" transform="translate(-257.403 -18.087)" fill="#fff"/>
      <path id="Path_79" data-name="Path 79" d="M561.848,41.154l1.081-3.8h1.4l-1.084,3.8h2.906l-.3,1.058h-2.9l-1.325,4.638h3.322l-.3,1.059h-8.319l.3-1.059h3.6l1.324-4.638h-2.667l.313-1.058Zm-5.34-1.865.558-1.971h1.306l-.561,1.971h1.356l.123-.048.6.7-1.457,1.441c-.272.258-.654.59-1.131.985.076.118.135.2.176.266s.123.171.228.317.175.238.213.278c.195.231.442.487.732.77-.136.109-.49.4-1.075.894-.25-.281-.451-.514-.6-.713s-.3-.406-.439-.619l-1.358,4.747h-1.3l1.266-4.425c-.486.333-1.063.672-1.717,1.03a7.8,7.8,0,0,0-.472-.95c.692-.341,1.218-.63,1.579-.856a21.738,21.738,0,0,0,2.155-1.527c.247-.21.707-.628,1.375-1.262h-3.573l.295-1.032Z" transform="translate(-269.817 -18.21)" fill="#fff"/>
      <path id="Path_80" data-name="Path 80" d="M160.32,5.673a8.269,8.269,0,0,1-1.469.277,1.132,1.132,0,0,0,.567.7l-.256.254c-.056-.031-.161-.084-.23-.134a1.773,1.773,0,0,0-.525-.067c-.064,0-.131.005-.191.009l0-.246a3.156,3.156,0,0,1,.512.018,1.574,1.574,0,0,1-.224-.5,12.422,12.422,0,0,1-1.248.045c-.226,0-.479,0-.686,0l.073-.282c.206,0,.473.009.7.009.377,0,.751,0,1.133-.031-.012-.139-.015-.393-.015-.594-.189.018-.4.027-.588.027-.249,0-.567,0-.781-.009l.077-.277c.273.013.577.013.775.013.166,0,.357-.009.537-.023.015-.2.037-.451.07-.7l.474,0c-.015.053-.065.084-.152.1-.026.192-.051.4-.062.571a5.844,5.844,0,0,0,1.307-.26l0,.277A6.724,6.724,0,0,1,158.8,5.1a4.737,4.737,0,0,0,.013.585,8,8,0,0,0,1.52-.295Zm-1.467,2.362c-.259.018-.565.027-1.022.027-.746,0-1.262-.237-1.113-.741a1.389,1.389,0,0,1,.74-.705l.151.205a.971.971,0,0,0-.562.5c-.088.317.28.455.864.46.345,0,.715-.018,1.034-.04Z" transform="translate(-76.4 -2.028)" fill="#fff"/>
      <path id="Path_81" data-name="Path 81" d="M167.461,5.048a6.865,6.865,0,0,1-1.486.254,15.548,15.548,0,0,1-1.618,2.79l-.3-.121a12.687,12.687,0,0,0,1.57-2.656c-.093,0-.712.009-.849,0l.079-.3c.073,0,.17,0,.275,0,.042,0,.5,0,.624,0,.125-.286.258-.6.36-.87l.463.045a.188.188,0,0,1-.158.09c-.082.2-.2.437-.313.71a6.377,6.377,0,0,0,1.36-.25Zm.4,2.973c-.14,0-.284.008-.427.008a4.4,4.4,0,0,1-1.066-.1.458.458,0,0,1-.34-.616,1.484,1.484,0,0,1,.464-.648l.244.116a1.166,1.166,0,0,0-.377.5c-.1.353.228.442,1.067.442.171,0,.347,0,.521-.018Zm-1.2-2.152a6.316,6.316,0,0,1,1.737-.228l-.085.3a5.983,5.983,0,0,0-1.651.2Z" transform="translate(-80.053 -2.023)" fill="#fff"/>
      <path id="Path_82" data-name="Path 82" d="M214.887,5.673a8.268,8.268,0,0,1-1.469.277,1.131,1.131,0,0,0,.567.7l-.256.254c-.056-.031-.161-.084-.23-.134a1.773,1.773,0,0,0-.525-.067c-.065,0-.131.005-.192.009l0-.246a3.156,3.156,0,0,1,.512.018,1.575,1.575,0,0,1-.224-.5,12.423,12.423,0,0,1-1.248.045c-.226,0-.479,0-.686,0l.073-.282c.206,0,.473.009.7.009.377,0,.751,0,1.133-.031-.012-.139-.015-.393-.015-.594-.189.018-.4.027-.588.027-.249,0-.567,0-.781-.009l.077-.277c.273.013.577.013.775.013.166,0,.357-.009.537-.023.015-.2.037-.451.07-.7l.474,0c-.015.053-.065.084-.152.1-.026.192-.051.4-.062.571a5.844,5.844,0,0,0,1.307-.26l0,.277a6.724,6.724,0,0,1-1.325.254,4.743,4.743,0,0,0,.013.585,8,8,0,0,0,1.52-.295ZM213.42,8.034c-.259.018-.565.027-1.022.027-.746,0-1.262-.237-1.113-.741a1.389,1.389,0,0,1,.74-.705l.151.205a.971.971,0,0,0-.562.5c-.088.317.28.455.864.46.345,0,.715-.018,1.034-.04Z" transform="translate(-103.026 -2.028)" fill="#fff"/>
      <path id="Path_83" data-name="Path 83" d="M219.454,7.426A2.924,2.924,0,0,1,221.241,6.3c.046-.2.1-.429.125-.6l.384.013a.148.148,0,0,1-.124.08c-.028.116-.078.348-.111.482.611-.009.979.294.805.92A1.42,1.42,0,0,1,220.879,8.2a2.284,2.284,0,0,1-.89.669,1.577,1.577,0,0,0-.154-.178,1.912,1.912,0,0,0,.768-.522.729.729,0,0,1-.682-.518,1.976,1.976,0,0,0,.238-.161.593.593,0,0,0,.6.442A2.908,2.908,0,0,0,221,7.354c.058-.227.133-.5.2-.808a2.622,2.622,0,0,0-1.672,1.112.81.81,0,0,0-.134.281,1.6,1.6,0,0,0-.05.313l-.272.031a3.765,3.765,0,0,1,.153-.932,7.934,7.934,0,0,1,.576-1.46l.329.076a.117.117,0,0,1-.105.049,7.1,7.1,0,0,0-.567,1.411Zm2.008-.906c-.066.3-.143.6-.21.839a2.7,2.7,0,0,1-.235.6,1.04,1.04,0,0,0,1.031-.759c.109-.393-.052-.679-.586-.679" transform="translate(-106.893 -2.78)" fill="#fff"/>
      <path id="Path_84" data-name="Path 84" d="M227.332,5.735a12.455,12.455,0,0,1,2.01-.366c.692,0,1,.357.815,1.017l-.01.036c-.235.813-1.058,1.406-2.477,1.75a1.243,1.243,0,0,0-.132-.272c1.256-.272,2.073-.808,2.261-1.486.119-.429-.007-.737-.556-.737a7.7,7.7,0,0,0-1.767.353c-.006.036-.064.08-.116.1Zm1.074-1.545a7.507,7.507,0,0,1,1.757.348l-.184.313a7.593,7.593,0,0,0-1.736-.357Z" transform="translate(-110.928 -2.045)" fill="#fff"/>
    </g>
  </g>
</svg>
